<svg xmlns="http://www.w3.org/2000/svg" xmlns:xlink="http://www.w3.org/1999/xlink" fill="none" version="1.1" width="96" height="96" viewBox="0 0 96 96"><defs><clipPath id="master_svg0_949_29456"><rect x="0" y="0" width="96" height="96" rx="0"/></clipPath><linearGradient x1="0.5" y1="0" x2="0.5" y2="1" id="master_svg1_711_6870"><stop offset="0%" stop-color="#F3F3F3" stop-opacity="1"/><stop offset="100%" stop-color="#F3F3F3" stop-opacity="0"/></linearGradient><linearGradient x1="0.5" y1="0" x2="0.5" y2="1" id="master_svg2_949_6616"><stop offset="0%" stop-color="#EAEAEA" stop-opacity="1"/><stop offset="100%" stop-color="#CECECE" stop-opacity="1"/></linearGradient><linearGradient x1="0.5" y1="0" x2="0.5" y2="1" id="master_svg3_711_7017"><stop offset="0%" stop-color="#FFFFFF" stop-opacity="1"/><stop offset="100%" stop-color="#EDEDED" stop-opacity="1"/></linearGradient><filter id="master_svg4_949_29467" filterUnits="objectBoundingBox" color-interpolation-filters="sRGB" x="0" y="0" width="7" height="8"><feFlood flood-opacity="0" result="BackgroundImageFix"/><feBlend mode="normal" in="SourceGraphic" in2="BackgroundImageFix" result="shape"/><feColorMatrix in="SourceAlpha" type="matrix" result="hardAlpha" values="0 0 0 0 0 0 0 0 0 0 0 0 0 0 0 0 0 0 127 0"/><feOffset dy="3" dx="0"/><feGaussianBlur stdDeviation="2"/><feComposite in2="hardAlpha" operator="arithmetic" k2="-1" k3="1"/><feColorMatrix type="matrix" values="0 0 0 0 0 0 0 0 0 0 0 0 0 0 0 0 0 0 0.3019607961177826 0"/><feBlend mode="normal" in2="shape" result="effect1_innerShadow"/></filter><filter id="master_svg5_949_29479" filterUnits="objectBoundingBox" color-interpolation-filters="sRGB" x="0" y="0" width="7" height="8"><feFlood flood-opacity="0" result="BackgroundImageFix"/><feBlend mode="normal" in="SourceGraphic" in2="BackgroundImageFix" result="shape"/><feColorMatrix in="SourceAlpha" type="matrix" result="hardAlpha" values="0 0 0 0 0 0 0 0 0 0 0 0 0 0 0 0 0 0 127 0"/><feOffset dy="3" dx="0"/><feGaussianBlur stdDeviation="2"/><feComposite in2="hardAlpha" operator="arithmetic" k2="-1" k3="1"/><feColorMatrix type="matrix" values="0 0 0 0 0 0 0 0 0 0 0 0 0 0 0 0 0 0 0.3019607961177826 0"/><feBlend mode="normal" in2="shape" result="effect1_innerShadow"/></filter><linearGradient x1="1" y1="0.5" x2="0" y2="0.5" id="master_svg6_711_7004"><stop offset="0%" stop-color="#C7C7C7" stop-opacity="1"/><stop offset="100%" stop-color="#EDEDED" stop-opacity="1"/></linearGradient><linearGradient x1="1" y1="0.5" x2="0" y2="0.5" id="master_svg7_711_7004"><stop offset="0%" stop-color="#C7C7C7" stop-opacity="1"/><stop offset="100%" stop-color="#EDEDED" stop-opacity="1"/></linearGradient><filter id="master_svg8_949_29460" filterUnits="objectBoundingBox" color-interpolation-filters="sRGB" x="-6" y="-6" width="31.050861358642578" height="96.81893920898438"><feFlood flood-opacity="0" result="BackgroundImageFix"/><feColorMatrix in="SourceAlpha" type="matrix" values="0 0 0 0 0 0 0 0 0 0 0 0 0 0 0 0 0 0 127 0"/><feOffset dy="2" dx="2"/><feGaussianBlur stdDeviation="2"/><feColorMatrix type="matrix" values="0 0 0 0 0 0 0 0 0 0 0 0 0 0 0 0 0 0 0.25 0"/><feBlend mode="normal" in2="BackgroundImageFix" result="effect1_dropShadow"/><feBlend mode="normal" in="SourceGraphic" in2="effect1_dropShadow" result="shape"/></filter><linearGradient x1="1" y1="0.5" x2="0" y2="0.5" id="master_svg9_949_6630"><stop offset="33.571428060531616%" stop-color="#A2A2A2" stop-opacity="1"/><stop offset="88.57142925262451%" stop-color="#D6D6D6" stop-opacity="1"/></linearGradient><linearGradient x1="0" y1="0.5" x2="1" y2="0.5" id="master_svga_949_6625"><stop offset="0%" stop-color="#F0F0F0" stop-opacity="1"/><stop offset="100%" stop-color="#D1D1D1" stop-opacity="1"/></linearGradient><linearGradient x1="0.5" y1="1" x2="0.5" y2="0" id="master_svgb_711_7060"><stop offset="0%" stop-color="#FFFFFF" stop-opacity="1"/><stop offset="100%" stop-color="#FFFFFF" stop-opacity="1"/></linearGradient><mask id="master_svgc_949_29465"><g style="mix-blend-mode:passthrough"><path d="M75.94318926334381,67.32919260101318C75.94318926334381,67.67369260101319,76.0614032633438,68.0077926010132,76.2780872633438,68.27569260101319L76.64145226334381,68.72499260101318C77.0567992633438,69.23839260101317,77.8397992633438,69.23839260101317,78.25514926334381,68.72499260101318C78.63291926334381,68.25789260101318,79.32709926334381,68.20819260101318,79.76758926334381,68.61659260101318L80.11215926334381,68.93609260101319C80.57097926334382,69.36149260101318,81.29405926334381,69.30969260101318,81.68755926334381,68.82329260101318C82.0991492633438,68.31439260101318,82.86496926334381,68.2851926010132,83.31415926334381,68.76119260101319L83.3769592633438,68.82769260101318C83.83514926334381,69.31329260101319,84.60744926334381,69.31329260101319,85.06563926334381,68.82769260101318L85.09927926334382,68.79209260101318C85.57572926334382,68.28719260101317,86.3787892633438,68.28719260101317,86.8552892633438,68.79209260101318L86.88888926334381,68.82769260101318C87.3470892633438,69.31329260101319,88.1193892633438,69.31329260101319,88.57758926334381,68.82769260101318L89.01588926334381,68.36329260101319C89.26638926334381,68.09779260101318,89.69338926334382,68.11409260101318,89.9228892633438,68.39789260101318C90.28018926334381,68.83959260101318,90.99428926334382,68.58699260101318,90.99428926334382,68.01879260101319L90.99428926334382,14.549292601013184C90.99428926334382,13.163942601013183,89.87128926334381,12.040892601013184,88.48588926334381,12.040892601013184L78.4515892633438,12.040892601013184C77.06623926334382,12.040892601013184,75.94318926334381,13.163942601013183,75.94318926334381,14.549292601013184L75.94318926334381,67.32919260101318Z" fill="url(#master_svgb_711_7060)" fill-opacity="1"/></g></mask><linearGradient x1="1" y1="0.5" x2="0" y2="0.5" id="master_svgd_711_7064"><stop offset="0%" stop-color="#1E88E5" stop-opacity="1"/><stop offset="100%" stop-color="#8ECAFF" stop-opacity="1"/></linearGradient><linearGradient x1="0" y1="0.5" x2="1" y2="0.5" id="master_svge_949_6621"><stop offset="31.42857253551483%" stop-color="#EDEDED" stop-opacity="1"/><stop offset="100%" stop-color="#CBCBCB" stop-opacity="1"/></linearGradient><filter id="master_svgf_949_29475" filterUnits="objectBoundingBox" color-interpolation-filters="sRGB" x="-5" y="-4" width="69.9772720336914" height="42.40975570678711"><feFlood flood-opacity="0" result="BackgroundImageFix"/><feColorMatrix in="SourceAlpha" type="matrix" values="0 0 0 0 0 0 0 0 0 0 0 0 0 0 0 0 0 0 127 0"/><feOffset dy="0" dx="-1"/><feGaussianBlur stdDeviation="1"/><feColorMatrix type="matrix" values="0 0 0 0 0 0 0 0 0 0 0 0 0 0 0 0 0 0 0.20000000298023224 0"/><feBlend mode="normal" in2="BackgroundImageFix" result="effect1_dropShadow"/><feBlend mode="normal" in="SourceGraphic" in2="effect1_dropShadow" result="shape"/></filter><linearGradient x1="0.20111730694770813" y1="0.6239088773727417" x2="0.7764354944229126" y2="0.2548629641532898" id="master_svgg_949_6646"><stop offset="0%" stop-color="#ADADAD" stop-opacity="1"/><stop offset="99.28571581840515%" stop-color="#D6D6D6" stop-opacity="1"/></linearGradient><filter id="master_svgh_949_29472" filterUnits="objectBoundingBox" color-interpolation-filters="sRGB" x="-3.5" y="-3" width="29.46366310119629" height="33.6856632232666"><feFlood flood-opacity="0" result="BackgroundImageFix"/><feColorMatrix in="SourceAlpha" type="matrix" values="0 0 0 0 0 0 0 0 0 0 0 0 0 0 0 0 0 0 127 0"/><feOffset dy="1" dx="0.5"/><feGaussianBlur stdDeviation="1"/><feColorMatrix type="matrix" values="0 0 0 0 0 0 0 0 0 0 0 0 0 0 0 0 0 0 0.25 0"/><feBlend mode="normal" in2="BackgroundImageFix" result="effect1_dropShadow"/><feBlend mode="normal" in="SourceGraphic" in2="effect1_dropShadow" result="shape"/></filter><linearGradient x1="0.1614181399345398" y1="0.3588135242462158" x2="0.8383329510688782" y2="0.6946262121200562" id="master_svgi_949_6606"><stop offset="21.42857164144516%" stop-color="#FFFFFF" stop-opacity="1"/><stop offset="100%" stop-color="#E0E0E0" stop-opacity="1"/></linearGradient><linearGradient x1="1" y1="0.5" x2="0" y2="0.5" id="master_svgj_949_6602"><stop offset="0%" stop-color="#2592F1" stop-opacity="1"/><stop offset="100%" stop-color="#74BEFF" stop-opacity="1"/></linearGradient></defs><g style="mix-blend-mode:passthrough" clip-path="url(#master_svg0_949_29456)"><rect x="0" y="0" width="96" height="96" rx="0" fill="#FFFFFF" fill-opacity="1"/><g style="mix-blend-mode:passthrough"><ellipse cx="48" cy="48" rx="48" ry="48" fill="url(#master_svg1_711_6870)" fill-opacity="1"/></g><g style="mix-blend-mode:passthrough"><ellipse cx="5" cy="5" rx="5" ry="5" fill="#F1F1F1" fill-opacity="1"/></g><g style="mix-blend-mode:passthrough"><rect x="4" y="10" width="86" height="81" rx="9.537444114685059" fill="url(#master_svg2_949_6616)" fill-opacity="1"/></g><g style="mix-blend-mode:passthrough"><rect x="8" y="14" width="78" height="74" rx="7.2129034996032715" fill="url(#master_svg3_711_7017)" fill-opacity="1"/></g><g style="mix-blend-mode:passthrough" filter="url(#master_svg4_949_29467)"><ellipse cx="28.5" cy="22" rx="3.5" ry="4" fill="#B0B0B0" fill-opacity="1"/></g><g style="mix-blend-mode:passthrough" filter="url(#master_svg5_949_29479)"><ellipse cx="66.5" cy="22" rx="3.5" ry="4" fill="#B0B0B0" fill-opacity="1"/></g><g style="mix-blend-mode:passthrough"><rect x="26" y="3" width="4" height="18" rx="2" fill="url(#master_svg6_711_7004)" fill-opacity="1"/></g><g style="mix-blend-mode:passthrough"><rect x="65" y="3" width="3" height="18" rx="1.5" fill="url(#master_svg7_711_7004)" fill-opacity="1"/></g><g style="mix-blend-mode:passthrough" transform="matrix(0.9690744280815125,0.2467682808637619,-0.2467682808637619,0.9690744280815125,3.1382985177770024,-18.64144436569768)"><g style="mix-blend-mode:passthrough" filter="url(#master_svg8_949_29460)"><path d="M78.456649375,3.20068359375C77.069389375,3.20068359375,75.945554235,4.32671359375,75.948258275,5.71397359375L76.070938375,68.65238359375C76.071694375,69.04048359375,76.162513375,69.42318359375,76.336246375,69.77028359375L81.222769375,79.53258359375C82.148079375,81.38108359375,84.786739375,81.37968359375,85.710109375,79.53018359375L90.722059375,69.49108359375C90.895759375,69.14318359375,90.986159375,68.75978359375,90.986259375,68.37088359375L90.993959375,5.70938359375C90.994059375,4.3239135937499995,89.870959375,3.20068359375,88.485559375,3.20068359375L78.456649375,3.20068359375Z" fill="url(#master_svg9_949_6630)" fill-opacity="1"/></g><g style="mix-blend-mode:passthrough"><path d="M76.078369140625,67.0865078125C76.078369140625,67.4281078125,76.194594140625,67.75960781250001,76.407940140625,68.0264078125L76.776579140625,68.4875078125C77.190159140625,69.0047078125,77.976759140625,69.0047078125,78.390339140625,68.4875078125C78.766709140625,68.01680781249999,79.464439140625,67.96680781250001,79.903999140625,68.3791078125L80.245929140625,68.6999078125C80.703799140625,69.1294078125,81.430589140625,69.07730781250001,81.822629140625,68.58700781249999C82.232609140625,68.0743078125,83.002199140625,68.0449078125,83.450019140625,68.52500781250001L83.512029140625,68.5915078125C83.968559140625,69.0809078125,84.744189140625,69.0809078125,85.200719140625,68.5915078125L85.234349140625,68.5554078125C85.709049140625,68.0466078125,86.515569140625,68.0466078125,86.990269140625,68.5554078125L87.023869140625,68.5915078125C87.480469140625,69.0809078125,88.256069140625,69.0809078125,88.71256914062499,68.5915078125L89.14966914062501,68.12300781249999C89.399769140625,67.8548078125,89.829669140625,67.8712078125,90.058669140625,68.1576078125C90.413569140625,68.6015078125,91.129269140625,68.3505078125,91.129269140625,67.78220781249999L91.129269140625,13.6539078125C91.129269140625,12.2685578125,90.006269140625,11.1455078125,88.620869140625,11.1455078125L78.586769140625,11.1455078125C77.201419140625,11.1455078125,76.078369140625,12.2685578125,76.078369140625,13.6539078125L76.078369140625,67.0865078125Z" fill="url(#master_svga_949_6625)" fill-opacity="1"/></g><g style="mix-blend-mode:passthrough" mask="url(#master_svgc_949_29465)"><g style="mix-blend-mode:passthrough"><path d="M85.41950762271881,11.639491132263183L88.4855676227188,11.451537132263184L88.4855676227188,69.79783713226318L85.41950762271881,69.98573713226318L85.41950762271881,11.639491132263183Z" fill="#C7C7C7" fill-opacity="1"/></g><g style="mix-blend-mode:passthrough"><path d="M79.16804277896881,5.279641913513184L82.2348227789688,5.069212913513184L82.2348227789688,70.39241291351318L79.16804277896881,70.60281291351319L79.16804277896881,5.279641913513184Z" fill="#DBDBDB" fill-opacity="1"/></g></g><g style="mix-blend-mode:passthrough"><rect x="75.943603515625" y="10.27294921875" width="15.050861358642578" height="4.592269420623779" rx="0" fill="url(#master_svgd_711_7064)" fill-opacity="1"/></g><g style="mix-blend-mode:passthrough"><path d="M75.943359375 4.454881310462952C75.943359375 3.762207038249787 76.50488281949978 3.20068359375 77.19755709171295 3.20068359375L89.74002301692963 3.20068359375C90.4326972891428 3.20068359375 90.99422073364258 3.762207038249787 90.99422073364258 4.454881310462952L90.99422073364258 10.272963523864746C90.99422073364258 10.272963523864746 90.99422073364258 10.272963523864746 90.99422073364258 10.272963523864746L75.943359375 10.272963523864746C75.943359375 10.272963523864746 75.943359375 10.272963523864746 75.943359375 10.272963523864746Z" fill="url(#master_svge_949_6621)" fill-opacity="1"/></g></g><g style="mix-blend-mode:passthrough" transform="matrix(0.11817950755357742,-0.9929497838020325,-0.9929918050765991,-0.11818379163742065,117.68222943946716,132.51747853894904)" filter="url(#master_svgf_949_29475)"><path d="M34.53010559960938,98.07004938964843C33.98452559960938,97.18809938964844,34.49209059960938,96.03369938964843,35.48313459960937,95.90244938964844L94.70596459960937,88.05873488964843C96.13866459960937,87.86898838964844,96.87996459960937,89.81519938964844,95.69486459960937,90.65465938964844L51.14206459960937,122.21194938964844C50.505064599609376,122.66314938964844,49.62416459960937,122.46884938964844,49.20016459960937,121.78354938964844L34.53010559960938,98.07004938964843ZM44.46806459960938,102.39674938964843C43.926714599609376,101.52284938964844,44.41976459960937,100.37704938964843,45.39986459960937,100.23134938964844L75.33086459960938,95.78158938964843C76.79306459960938,95.56420938964844,77.54416459960937,97.57601938964844,76.30736459960937,98.39734938964844L53.147564599609375,113.77724938964843C52.51116459960937,114.19994938964844,51.654864599609375,113.99784938964844,51.23926459960937,113.32694938964843L44.46806459960938,102.39674938964843Z" fill-rule="evenodd" fill="url(#master_svgg_949_6646)" fill-opacity="1"/></g><g style="mix-blend-mode:passthrough" transform="matrix(0.9881939888000488,-0.15320801734924316,0.15320801734924316,0.9881939888000488,-5.792043912224472,5.8713031152728945)"><g style="mix-blend-mode:passthrough" transform="matrix(0.9934232831001282,-0.11449948698282242,0.11449948698282242,0.9934232831001282,-4.689136132885039,4.313039562109736)" filter="url(#master_svgh_949_29472)"><path d="M56.604791497802736,50.57748540786743C56.48799149780274,51.460925407867435,56.20649149780273,52.28836540786743,55.76049149780273,53.05979540786743L49.942891497802734,49.69620540786743L44.12526149780273,46.33257540786743Q44.794321497802734,45.17538540786743,45.85529149780273,44.362315407867435Q46.91629149780273,43.54925340786743,48.20759149780274,43.20409640786743Q49.498991497802734,42.85894040786743,50.82409149780273,43.034239607867434C51.70759149780274,43.15110640786743,52.534991497802736,43.43256140786743,53.30649149780274,43.87860640786743Q54.463691497802735,44.54767540786743,55.27669149780273,45.60864540786743C55.818791497802735,46.31596540786743,56.204891497802734,47.10007540786743,56.434991497802734,47.96098540786743C56.665091497802734,48.82189540786743,56.72169149780274,49.69405540786743,56.604791497802736,50.57748540786743ZM55.696591497802736,53.03849540786743L44.061091497802735,46.311075407867435L35.32927349780273,61.45409540786743C35.063891497802736,61.91309540786743,35.22081539780273,62.500095407867434,35.679810497802734,62.76539540786743L45.65319149780274,68.53179540786743C46.11219149780273,68.79719540786743,46.69949149780273,68.64009540786743,46.96489149780273,68.18109540786743L55.696591497802736,53.03849540786743Z" fill-rule="evenodd" fill="url(#master_svgi_949_6606)" fill-opacity="1"/></g><g style="mix-blend-mode:passthrough" transform="matrix(0.917487382888794,0.3977649509906769,-0.3977649509906769,0.917487382888794,21.67100832401775,-13.9371988447092)"><rect x="44.4287109375" y="45.265625" width="13.455931663513184" height="15.514252662658691" rx="0" fill="url(#master_svgj_949_6602)" fill-opacity="1"/></g></g></g></svg>