<svg xmlns="http://www.w3.org/2000/svg" xmlns:xlink="http://www.w3.org/1999/xlink" fill="none" version="1.1" width="96" height="96" viewBox="0 0 96 96"><defs><clipPath id="master_svg0_949_04552"><rect x="0" y="0" width="96" height="96" rx="0"/></clipPath><linearGradient x1="0.5" y1="0" x2="0.5" y2="1" id="master_svg1_711_6843"><stop offset="0%" stop-color="#F3F3F3" stop-opacity="1"/><stop offset="100%" stop-color="#F3F3F3" stop-opacity="0"/></linearGradient><linearGradient x1="0.5" y1="0" x2="0.5" y2="1" id="master_svg2_949_6727"><stop offset="0%" stop-color="#D1D1D1" stop-opacity="1"/><stop offset="47.14285731315613%" stop-color="#F1F1F1" stop-opacity="1"/><stop offset="100%" stop-color="#D1D1D1" stop-opacity="1"/></linearGradient><linearGradient x1="0.5" y1="0" x2="0.5" y2="1" id="master_svg3_711_6861"><stop offset="0%" stop-color="#F4F4F4" stop-opacity="1"/><stop offset="100%" stop-color="#CDCDCD" stop-opacity="1"/></linearGradient><linearGradient x1="0.5" y1="0" x2="0.5" y2="1" id="master_svg4_711_6789"><stop offset="0%" stop-color="#FAFAFA" stop-opacity="1"/><stop offset="100%" stop-color="#DCDCDC" stop-opacity="1"/></linearGradient><linearGradient x1="0.5" y1="0" x2="0.5" y2="1" id="master_svg5_949_6745"><stop offset="0%" stop-color="#878787" stop-opacity="1"/><stop offset="100%" stop-color="#E0E0E0" stop-opacity="1"/></linearGradient><mask id="master_svg6_1241_6016"><g style="mix-blend-mode:passthrough"><path d="M48,66C48,59.4542,47.5203,53.1576,46.5609,47.1101C45.6015,41.0626,44.2354,35.724599999999995,42.4627,31.096C40.69,26.4674,38.6455,22.9007,36.3293,20.395699999999998Q34.0131,17.8908,31.4095,13.23404L19.8346,6L2.85827,11.10638L-1,39.1915Q-1,59.4542,-1,66L29.0945,66L48,66Z" fill="#FFFFFF" fill-opacity="1"/></g></mask><filter id="master_svg7_949_04561" filterUnits="objectBoundingBox" color-interpolation-filters="sRGB" x="-6" y="-5" width="47.288963317871094" height="35.55716323852539"><feFlood flood-opacity="0" result="BackgroundImageFix"/><feColorMatrix in="SourceAlpha" type="matrix" values="0 0 0 0 0 0 0 0 0 0 0 0 0 0 0 0 0 0 127 0"/><feOffset dy="1" dx="0"/><feGaussianBlur stdDeviation="1.5"/><feColorMatrix type="matrix" values="0 0 0 0 0.5357000231742859 0 0 0 0 0.5309858322143555 0 0 0 0 0.5309858322143555 0 0 0 0.3019607961177826 0"/><feBlend mode="normal" in2="BackgroundImageFix" result="effect1_dropShadow"/><feBlend mode="normal" in="SourceGraphic" in2="effect1_dropShadow" result="shape"/></filter><mask id="master_svg8_1241_6018"><g style="mix-blend-mode:passthrough"><path d="M18.54185724258423,43.920836016845705L18.54185724258423,24.363636016845703C18.54185724258423,23.259066016845704,19.43728724258423,22.363636016845703,20.54185724258423,22.363636016845703L51.83085724258423,22.363636016845703C52.93535724258423,22.363636016845703,53.83085724258423,23.259066016845704,53.83085724258423,24.363636016845703L53.83085724258423,43.920836016845705C53.83085724258423,45.0253360168457,52.93535724258423,45.920836016845705,51.83085724258423,45.920836016845705L20.54185724258423,45.920836016845705C19.43728724258423,45.920836016845705,18.54185724258423,45.0253360168457,18.54185724258423,43.920836016845705Z" fill="#FFFFFF" fill-opacity="1"/></g></mask><filter id="master_svg9_1241_6019" filterUnits="objectBoundingBox" color-interpolation-filters="sRGB" x="-10" y="-8" width="58.70402526855469" height="39.07008361816406"><feFlood flood-opacity="0" result="BackgroundImageFix"/><feColorMatrix in="SourceAlpha" type="matrix" values="0 0 0 0 0 0 0 0 0 0 0 0 0 0 0 0 0 0 127 0"/><feOffset dy="2" dx="0"/><feGaussianBlur stdDeviation="2.5"/><feColorMatrix type="matrix" values="0 0 0 0 0.3208169937133789 0 0 0 0 0.5162631869316101 0 0 0 0 0.6991000175476074 0 0 0 0.5 0"/><feBlend mode="normal" in2="BackgroundImageFix" result="effect1_dropShadow"/><feBlend mode="normal" in="SourceGraphic" in2="effect1_dropShadow" result="shape"/></filter><linearGradient x1="0.5" y1="0" x2="0.5" y2="0.738647997379303" id="master_svga_711_6828"><stop offset="51.428574323654175%" stop-color="#FFFFFF" stop-opacity="1"/><stop offset="100%" stop-color="#DDEFFF" stop-opacity="1"/></linearGradient><filter id="master_svgb_1241_6020" filterUnits="objectBoundingBox" color-interpolation-filters="sRGB" x="-12" y="-11" width="62.70402526855469" height="43.07008361816406"><feFlood flood-opacity="0" result="BackgroundImageFix"/><feColorMatrix in="SourceAlpha" type="matrix" values="0 0 0 0 0 0 0 0 0 0 0 0 0 0 0 0 0 0 127 0"/><feOffset dy="1" dx="0"/><feGaussianBlur stdDeviation="3"/><feColorMatrix type="matrix" values="0 0 0 0 0.29873114824295044 0 0 0 0 0.45916831493377686 0 0 0 0 0.6309000253677368 0 0 0 0.5 0"/><feBlend mode="normal" in2="BackgroundImageFix" result="effect1_dropShadow"/><feBlend mode="normal" in="SourceGraphic" in2="effect1_dropShadow" result="shape"/></filter><linearGradient x1="0.5" y1="0" x2="0.5" y2="0.738647997379303" id="master_svgc_711_6822"><stop offset="72.85714149475098%" stop-color="#FFFFFF" stop-opacity="1"/><stop offset="100%" stop-color="#F5FAFF" stop-opacity="1"/></linearGradient><linearGradient x1="0.5" y1="0" x2="0.5" y2="1" id="master_svgd_949_6722"><stop offset="0%" stop-color="#B9B9B9" stop-opacity="1"/><stop offset="100%" stop-color="#D8D8D8" stop-opacity="0"/></linearGradient><linearGradient x1="1" y1="0.5" x2="0" y2="0.5" id="master_svge_949_6718"><stop offset="15.000000596046448%" stop-color="#2089E4" stop-opacity="1"/><stop offset="77.14285850524902%" stop-color="#76C0FF" stop-opacity="1"/></linearGradient></defs><g style="mix-blend-mode:passthrough" clip-path="url(#master_svg0_949_04552)"><rect x="0" y="0" width="96" height="96" rx="0" fill="#FFFFFF" fill-opacity="1"/><g style="mix-blend-mode:passthrough"><ellipse cx="48" cy="48" rx="47" ry="47" fill="url(#master_svg1_711_6843)" fill-opacity="1"/></g><g style="mix-blend-mode:passthrough"><ellipse cx="86" cy="88" rx="6" ry="6" fill="#EDEDED" fill-opacity="1"/></g><g style="mix-blend-mode:passthrough"><path d="M29,66L92.34440000000001,66Q94.2344,53.5,90.67609999999999,38.6562Q87.11789999999999,23.8125,76.0478,16L29,16L29,66Z" fill="url(#master_svg2_949_6727)" fill-opacity="1"/></g><g style="mix-blend-mode:passthrough"><rect x="44" y="66" width="49" height="4" rx="2" fill="url(#master_svg3_711_6861)" fill-opacity="1"/></g><g style="mix-blend-mode:passthrough"><rect x="26" y="70" width="69" height="8" rx="3" fill="url(#master_svg4_711_6789)" fill-opacity="1"/></g><g style="mix-blend-mode:passthrough"><path d="M48,66C48,59.3696,47.5179,52.9915,46.5537,46.8658C45.5895,40.7401,44.2166,35.3331,42.435,30.6447C40.653400000000005,25.95625,38.5988,22.34337,36.271,19.80603C33.943200000000004,17.26868,31.5196,16.000000993411,29,16.00000298023C26.4804,16.00000198682,24.056800000000003,17.26868,21.729,19.80602C19.401249999999997,22.34337,17.34657,25.95625,15.564969999999999,30.6447C13.783380000000001,35.3331,12.41048,40.7401,11.44629,46.8658C10.482096,52.9915,10,59.3696,10,66L29,66L48,66Z" fill="url(#master_svg5_949_6745)" fill-opacity="1"/></g><g style="mix-blend-mode:passthrough" mask="url(#master_svg6_1241_6016)"><g style="mix-blend-mode:passthrough" transform="matrix(0.8001067042350769,0.5998578071594238,-0.5984339714050293,0.801172137260437,17.089552375123844,-6.6759635878502195)" filter="url(#master_svg7_949_04561)"><g style="mix-blend-mode:passthrough"><path d="M18.54185676574707,43.920836016845705L18.54185676574707,24.363636016845703C18.54185676574707,23.259066016845704,19.43728676574707,22.363636016845703,20.54185676574707,22.363636016845703L51.83085676574707,22.363636016845703C52.93535676574707,22.363636016845703,53.83085676574707,23.259066016845704,53.83085676574707,24.363636016845703L53.83085676574707,43.920836016845705C53.83085676574707,45.0253360168457,52.93535676574707,45.920836016845705,51.83085676574707,45.920836016845705L20.54185676574707,45.920836016845705C19.43728676574707,45.920836016845705,18.54185676574707,45.0253360168457,18.54185676574707,43.920836016845705Z" fill="#E4F5FF" fill-opacity="1"/></g><g style="mix-blend-mode:passthrough" mask="url(#master_svg8_1241_6018)"><g style="mix-blend-mode:passthrough" transform="matrix(-1,0,0,1,109.9378252029419,0)" filter="url(#master_svg9_1241_6019)"><path d="M54.96891260147095,51.5299274230957L93.67291260147095,51.5299274230957L93.67291260147095,42.6601274230957L73.44131260147094,32.4598274230957L54.96891260147095,42.6601274230957L54.96891260147095,51.5299274230957Z" fill="url(#master_svga_711_6828)" fill-opacity="1"/></g><g style="mix-blend-mode:passthrough" transform="matrix(1,0,0,-1,0,73.8932876586914)" filter="url(#master_svgb_1241_6020)"><path d="M16.26500177383423,56.0167438293457L54.96900177383423,56.0167438293457L54.96900177383423,47.1469438293457L35.76780177383423,36.9466438293457L16.26500177383423,47.1469438293457L16.26500177383423,56.0167438293457Z" fill="url(#master_svgc_711_6822)" fill-opacity="1"/></g></g></g></g><g style="mix-blend-mode:passthrough" transform="matrix(-1,0,0,-1,96,186)"><path d="M86,120C86,116.4196,85.5179,112.97540000000001,84.55369999999999,109.6675C83.5895,106.3597,82.2166,103.4399,80.435,100.90812C78.6534,98.37638,76.5988,96.42542,74.271,95.05525C71.9432,93.685086,69.5196,93.00000190735,67,93.00000190735C64.4804,93.00000127157,62.0568,93.685085,59.729,95.05525C57.40125,96.42542,55.34657,98.37638,53.56497,100.90812C51.78338,103.4399,50.41048,106.3597,49.44629,109.6675C48.482096,112.97540000000001,48,116.4196,48,120L67,120L86,120Z" fill="#CACACA" fill-opacity="1"/></g><g style="mix-blend-mode:passthrough"><rect x="12" y="65" width="6" height="3" rx="1" fill="#E4E4E4" fill-opacity="1"/></g><g style="mix-blend-mode:passthrough"><rect x="36" y="65" width="6" height="3" rx="1" fill="#E4E4E4" fill-opacity="1"/></g><g style="mix-blend-mode:passthrough"><rect x="54" y="78" width="6" height="16" rx="0" fill="url(#master_svgd_949_6722)" fill-opacity="1"/></g><g style="mix-blend-mode:passthrough"><rect x="56" y="8" width="2" height="42" rx="1" fill="#BCBCBC" fill-opacity="1"/></g><g style="mix-blend-mode:passthrough"><ellipse cx="57.5" cy="50.5" rx="3.5" ry="3.5" fill="#A7A7A7" fill-opacity="1"/></g><g style="mix-blend-mode:passthrough"><ellipse cx="57.5" cy="50.5" rx="1" ry="1" fill="#FFFFFF" fill-opacity="1"/></g><g style="mix-blend-mode:passthrough"><path d="M58,21.9636Q60.55,20.2182,62.25,20.2182Q63.95,20.2182,66.13043,21.9635Q68.9145,24,71.0333,24Q73.1522,24,75,21.9636L75,9.74545Q72.9797,11.78164,71.0333,11.78182Q69.087,11.78199,66.86957,10.28571Q63.91304,8,62.25,8Q60.58696,8,58,9.74545L58,21.9636Z" fill="url(#master_svge_949_6718)" fill-opacity="1"/></g></g></svg>