<svg xmlns="http://www.w3.org/2000/svg" xmlns:xlink="http://www.w3.org/1999/xlink" fill="none" version="1.1" width="96" height="96" viewBox="0 0 96 96"><defs><clipPath id="master_svg0_949_29489"><rect x="0" y="0" width="96" height="96" rx="0"/></clipPath><linearGradient x1="0.5" y1="0" x2="0.5" y2="1" id="master_svg1_711_6870"><stop offset="0%" stop-color="#F3F3F3" stop-opacity="1"/><stop offset="100%" stop-color="#F3F3F3" stop-opacity="0"/></linearGradient><linearGradient x1="0.5" y1="0" x2="0.5" y2="1" id="master_svg2_949_6778"><stop offset="0%" stop-color="#D9D9D9" stop-opacity="1"/><stop offset="50%" stop-color="#A4A4A4" stop-opacity="1"/></linearGradient><mask id="master_svg3_949_29500"><g style="mix-blend-mode:passthrough"><path d="M9,69C9,72.3137,11.68629,75,15,75L80,75C83.3137,75,86,72.3137,86,69L86,30.4314C86,28.4729,85.0441,26.6376,83.4393,25.515L50.4528,2.43962C48.3639,0.978357,45.5797,0.996606,43.5101,2.48512L11.4966,25.5106C9.929147,26.638,9,28.4508,9,30.3816L9,69Z" fill="#FFFFFF" fill-opacity="1"/></g></mask><linearGradient x1="0.5" y1="0" x2="0.5" y2="1" id="master_svg4_949_6791"><stop offset="1.4285714365541935%" stop-color="#FFFFFF" stop-opacity="1"/><stop offset="100%" stop-color="#E1E1E1" stop-opacity="1"/></linearGradient><filter id="master_svg5_949_29507" filterUnits="objectBoundingBox" color-interpolation-filters="sRGB" x="0" y="0" width="73.18621063232422" height="33.96702194213867"><feFlood flood-opacity="0" result="BackgroundImageFix"/><feBlend mode="normal" in="SourceGraphic" in2="BackgroundImageFix" result="shape"/><feColorMatrix in="SourceAlpha" type="matrix" result="hardAlpha" values="0 0 0 0 0 0 0 0 0 0 0 0 0 0 0 0 0 0 127 0"/><feOffset dy="3" dx="-3"/><feGaussianBlur stdDeviation="2.5"/><feComposite in2="hardAlpha" operator="arithmetic" k2="-1" k3="1"/><feColorMatrix type="matrix" values="0 0 0 0 0 0 0 0 0 0 0 0 0 0 0 0 0 0 0.10000000149011612 0"/><feBlend mode="normal" in2="shape" result="effect1_innerShadow"/></filter><linearGradient x1="0.5" y1="0" x2="0.5" y2="1" id="master_svg6_949_6762"><stop offset="0%" stop-color="#B6B6B6" stop-opacity="1"/><stop offset="100%" stop-color="#F0F0F0" stop-opacity="1"/></linearGradient><linearGradient x1="0.5" y1="0" x2="0.5" y2="1" id="master_svg7_711_6981"><stop offset="0%" stop-color="#34A0FF" stop-opacity="1"/><stop offset="100%" stop-color="#BBDFFF" stop-opacity="1"/></linearGradient></defs><g style="mix-blend-mode:passthrough" clip-path="url(#master_svg0_949_29489)"><rect x="0" y="0" width="96" height="96" rx="0" fill="#FFFFFF" fill-opacity="1"/><g style="mix-blend-mode:passthrough"><ellipse cx="48" cy="46.5" rx="46" ry="46.5" fill="url(#master_svg1_711_6870)" fill-opacity="1"/></g><g style="mix-blend-mode:passthrough"><ellipse cx="85" cy="7" rx="6" ry="6" fill="#EDEDED" fill-opacity="1"/></g><g style="mix-blend-mode:passthrough"><g style="mix-blend-mode:passthrough"><path d="M9,69C9,72.3137,11.68629,75,15,75L80,75C83.3137,75,86,72.3137,86,69L86,29.776C86,27.7931,85.0203,25.9382,83.3825,24.8203L50.4439,2.33786C48.3827,0.930959,45.6658,0.946844,43.6212,2.37776L11.55977,24.8155C9.955492,25.9382,9,27.7731,9,29.7312L9,69Z" fill="url(#master_svg2_949_6778)" fill-opacity="1"/></g><g style="mix-blend-mode:passthrough"><rect x="15.09912109375" y="11.59814453125" width="64.8019790649414" height="57.216495513916016" rx="3" fill="#FDFDFD" fill-opacity="1"/></g><g style="mix-blend-mode:passthrough"><g style="mix-blend-mode:passthrough"><path d="M65.0346347290039,30.88162899017334L30.346534729003906,30.88162899017334L30.346534729003906,27.88162899017334L65.0346347290039,27.88162899017334L65.0346347290039,30.88162899017334ZM66.5346347290039,29.38162899017334Q66.5346347290039,29.45531929017334,66.52743472900391,29.52865499017334Q66.5202347290039,29.60198999017334,66.50583472900391,29.67426399017334Q66.49143472900391,29.746538990173338,66.47003472900391,29.81705599017334Q66.44863472900391,29.88757299017334,66.42043472900392,29.95565399017334Q66.3922347290039,30.023734990173338,66.3575347290039,30.08872399017334Q66.32283472900392,30.15371299017334,66.2818347290039,30.21498399017334Q66.2409347290039,30.27625599017334,66.1941347290039,30.33321899017334Q66.1474347290039,30.39017899017334,66.09533472900391,30.44228899017334Q66.0432347290039,30.49439899017334,65.98623472900391,30.54114899017334Q65.92923472900391,30.58788899017334,65.86803472900391,30.62882899017334Q65.8067347290039,30.66976899017334,65.74173472900391,30.70450899017334Q65.6767347290039,30.73924899017334,65.60863472900391,30.76744899017334Q65.5406347290039,30.79564899017334,65.47003472900391,30.81703899017334Q65.3995347290039,30.83842899017334,65.32733472900391,30.85280899017334Q65.25503472900391,30.86717899017334,65.1816347290039,30.87440899017334Q65.1083347290039,30.88162899017334,65.0346347290039,30.88162899017334Q64.96093472900391,30.88162899017334,64.8876347290039,30.87440899017334Q64.8143347290039,30.86717899017334,64.7420347290039,30.85280899017334Q64.6697347290039,30.83842899017334,64.59923472900391,30.81703899017334Q64.5287347290039,30.79564899017334,64.46063472900391,30.76744899017334Q64.3925347290039,30.73924899017334,64.3275347290039,30.70450899017334Q64.2625347290039,30.66976899017334,64.2013347290039,30.62882899017334Q64.1400347290039,30.58788899017334,64.08303472900391,30.54114899017334Q64.0261347290039,30.49439899017334,63.974034729003904,30.44228899017334Q63.921834729003905,30.39017899017334,63.8751347290039,30.33321899017334Q63.82843472900391,30.27625599017334,63.787434729003905,30.21498399017334Q63.746534729003905,30.15371299017334,63.71173472900391,30.08872399017334Q63.67703472900391,30.023734990173338,63.64883472900391,29.95565399017334Q63.6206347290039,29.88757299017334,63.5992347290039,29.81705599017334Q63.577834729003904,29.746538990173338,63.56343472900391,29.67426399017334Q63.5491347290039,29.60198999017334,63.54183472900391,29.52865499017334Q63.534634729003905,29.45531929017334,63.534634729003905,29.38162899017334Q63.534634729003905,29.30793869017334,63.54183472900391,29.23460299017334Q63.5491347290039,29.16126799017334,63.56343472900391,29.08899399017334Q63.577834729003904,29.01671899017334,63.5992347290039,28.94620199017334Q63.6206347290039,28.87568499017334,63.64883472900391,28.80760399017334Q63.67703472900391,28.73952299017334,63.71173472900391,28.67453399017334Q63.746534729003905,28.60954499017334,63.787434729003905,28.54827399017334Q63.82843472900391,28.48700199017334,63.8751347290039,28.43003899017334Q63.921834729003905,28.37307899017334,63.974034729003904,28.32096899017334Q64.0261347290039,28.26885899017334,64.08303472900391,28.22210899017334Q64.1400347290039,28.17536899017334,64.2013347290039,28.13442899017334Q64.2625347290039,28.09348899017334,64.3275347290039,28.05874899017334Q64.3925347290039,28.02400899017334,64.46063472900391,27.99580899017334Q64.5287347290039,27.96760899017334,64.59923472900391,27.94621899017334Q64.6697347290039,27.92482899017334,64.7420347290039,27.91044899017334Q64.8143347290039,27.89607899017334,64.8876347290039,27.88884899017334Q64.96093472900391,27.88162899017334,65.0346347290039,27.88162899017334Q65.1083347290039,27.88162899017334,65.1816347290039,27.88884899017334Q65.25503472900391,27.89607899017334,65.32733472900391,27.91044899017334Q65.3995347290039,27.92482899017334,65.47003472900391,27.94621899017334Q65.5406347290039,27.96760899017334,65.60863472900391,27.99580899017334Q65.6767347290039,28.02400899017334,65.74173472900391,28.05874899017334Q65.8067347290039,28.09348899017334,65.86803472900391,28.13442899017334Q65.92923472900391,28.17536899017334,65.98623472900391,28.22210899017334Q66.0432347290039,28.26885899017334,66.09533472900391,28.32096899017334Q66.1474347290039,28.37307899017334,66.1941347290039,28.43003899017334Q66.2409347290039,28.48700199017334,66.2818347290039,28.54827399017334Q66.32283472900392,28.60954499017334,66.3575347290039,28.67453399017334Q66.3922347290039,28.73952299017334,66.42043472900392,28.80760399017334Q66.44863472900391,28.87568499017334,66.47003472900391,28.94620199017334Q66.49143472900391,29.01671899017334,66.50583472900391,29.08899399017334Q66.5202347290039,29.16126799017334,66.52743472900391,29.23460299017334Q66.5346347290039,29.30793869017334,66.5346347290039,29.38162899017334ZM31.846534729003906,29.38162899017334Q31.846534729003906,29.45531929017334,31.839314729003906,29.52865499017334Q31.832084729003906,29.60198999017334,31.817714729003907,29.67426399017334Q31.803334729003907,29.746538990173338,31.781944729003907,29.81705599017334Q31.760554729003907,29.88757299017334,31.732354729003905,29.95565399017334Q31.704154729003907,30.023734990173338,31.669414729003908,30.08872399017334Q31.634674729003905,30.15371299017334,31.593734729003906,30.21498399017334Q31.552794729003907,30.27625599017334,31.506054729003907,30.33321899017334Q31.459304729003907,30.39017899017334,31.407194729003905,30.44228899017334Q31.355084729003906,30.49439899017334,31.298124729003906,30.54114899017334Q31.241161729003906,30.58788899017334,31.179889729003907,30.62882899017334Q31.118618729003906,30.66976899017334,31.053629729003905,30.70450899017334Q30.988640729003905,30.73924899017334,30.920559729003905,30.76744899017334Q30.852478729003906,30.79564899017334,30.781961729003907,30.81703899017334Q30.711444729003905,30.83842899017334,30.639169729003907,30.85280899017334Q30.566895729003907,30.86717899017334,30.493560729003907,30.87440899017334Q30.420225029003905,30.88162899017334,30.346534729003906,30.88162899017334Q30.272844429003907,30.88162899017334,30.199508729003906,30.87440899017334Q30.126173729003906,30.86717899017334,30.053899729003906,30.85280899017334Q29.981624729003908,30.83842899017334,29.911107729003906,30.81703899017334Q29.840590729003907,30.79564899017334,29.772509729003907,30.76744899017334Q29.704428729003908,30.73924899017334,29.639439729003907,30.70450899017334Q29.574450729003907,30.66976899017334,29.513179729003905,30.62882899017334Q29.451907729003906,30.58788899017334,29.394944729003907,30.54114899017334Q29.337984729003907,30.49439899017334,29.285874729003908,30.44228899017334Q29.233764729003905,30.39017899017334,29.187014729003906,30.33321899017334Q29.140274729003906,30.27625599017334,29.099334729003907,30.21498399017334Q29.058394729003908,30.15371299017334,29.023654729003905,30.08872399017334Q28.988914729003906,30.023734990173338,28.960714729003907,29.95565399017334Q28.932514729003906,29.88757299017334,28.911124729003905,29.81705599017334Q28.889734729003905,29.746538990173338,28.875354729003906,29.67426399017334Q28.860984729003906,29.60198999017334,28.853754729003906,29.52865499017334Q28.846534729003906,29.45531929017334,28.846534729003906,29.38162899017334Q28.846534729003906,29.30793869017334,28.853754729003906,29.23460299017334Q28.860984729003906,29.16126799017334,28.875354729003906,29.08899399017334Q28.889734729003905,29.01671899017334,28.911124729003905,28.94620199017334Q28.932514729003906,28.87568499017334,28.960714729003907,28.80760399017334Q28.988914729003906,28.73952299017334,29.023654729003905,28.67453399017334Q29.058394729003908,28.60954499017334,29.099334729003907,28.54827399017334Q29.140274729003906,28.48700199017334,29.187014729003906,28.43003899017334Q29.233764729003905,28.37307899017334,29.285874729003908,28.32096899017334Q29.337984729003907,28.26885899017334,29.394944729003907,28.22210899017334Q29.451907729003906,28.17536899017334,29.513179729003905,28.13442899017334Q29.574450729003907,28.09348899017334,29.639439729003907,28.05874899017334Q29.704428729003908,28.02400899017334,29.772509729003907,27.99580899017334Q29.840590729003907,27.96760899017334,29.911107729003906,27.94621899017334Q29.981624729003908,27.92482899017334,30.053899729003906,27.91044899017334Q30.126173729003906,27.89607899017334,30.199508729003906,27.88884899017334Q30.272844429003907,27.88162899017334,30.346534729003906,27.88162899017334Q30.420225029003905,27.88162899017334,30.493560729003907,27.88884899017334Q30.566895729003907,27.89607899017334,30.639169729003907,27.91044899017334Q30.711444729003905,27.92482899017334,30.781961729003907,27.94621899017334Q30.852478729003906,27.96760899017334,30.920559729003905,27.99580899017334Q30.988640729003905,28.02400899017334,31.053629729003905,28.05874899017334Q31.118618729003906,28.09348899017334,31.179889729003907,28.13442899017334Q31.241161729003906,28.17536899017334,31.298124729003906,28.22210899017334Q31.355084729003906,28.26885899017334,31.407194729003905,28.32096899017334Q31.459304729003907,28.37307899017334,31.506054729003907,28.43003899017334Q31.552794729003907,28.48700199017334,31.593734729003906,28.54827399017334Q31.634674729003905,28.60954499017334,31.669414729003908,28.67453399017334Q31.704154729003907,28.73952299017334,31.732354729003905,28.80760399017334Q31.760554729003907,28.87568499017334,31.781944729003907,28.94620199017334Q31.803334729003907,29.01671899017334,31.817714729003907,29.08899399017334Q31.832084729003906,29.16126799017334,31.839314729003906,29.23460299017334Q31.846534729003906,29.30793869017334,31.846534729003906,29.38162899017334Z" fill="#BFE1FF" fill-opacity="1"/></g><g style="mix-blend-mode:passthrough"><path d="M65.0346347290039,37.84020519256592L30.346534729003906,37.84020519256592L30.346534729003906,34.84020519256592L65.0346347290039,34.84020519256592L65.0346347290039,37.84020519256592ZM66.5346347290039,36.34020519256592Q66.5346347290039,36.41389549256592,66.52743472900391,36.487231192565915Q66.5202347290039,36.560566192565915,66.50583472900391,36.632840192565915Q66.49143472900391,36.70511519256592,66.47003472900391,36.775632192565915Q66.44863472900391,36.84614919256592,66.42043472900392,36.91423019256592Q66.3922347290039,36.982311192565916,66.3575347290039,37.04730019256592Q66.32283472900392,37.11228919256592,66.2818347290039,37.173560192565915Q66.2409347290039,37.23483219256592,66.1941347290039,37.29179519256592Q66.1474347290039,37.34875519256592,66.09533472900391,37.40086519256592Q66.0432347290039,37.452975192565916,65.98623472900391,37.49972519256592Q65.92923472900391,37.54646519256592,65.86803472900391,37.58740519256592Q65.8067347290039,37.62834519256592,65.74173472900391,37.663085192565916Q65.6767347290039,37.697825192565915,65.60863472900391,37.72602519256592Q65.5406347290039,37.75422519256592,65.47003472900391,37.775615192565915Q65.3995347290039,37.79700519256592,65.32733472900391,37.811385192565915Q65.25503472900391,37.82575519256592,65.1816347290039,37.83298519256592Q65.1083347290039,37.84020519256592,65.0346347290039,37.84020519256592Q64.96093472900391,37.84020519256592,64.8876347290039,37.83298519256592Q64.8143347290039,37.82575519256592,64.7420347290039,37.811385192565915Q64.6697347290039,37.79700519256592,64.59923472900391,37.775615192565915Q64.5287347290039,37.75422519256592,64.46063472900391,37.72602519256592Q64.3925347290039,37.697825192565915,64.3275347290039,37.663085192565916Q64.2625347290039,37.62834519256592,64.2013347290039,37.58740519256592Q64.1400347290039,37.54646519256592,64.08303472900391,37.49972519256592Q64.0261347290039,37.452975192565916,63.974034729003904,37.40086519256592Q63.921834729003905,37.34875519256592,63.8751347290039,37.29179519256592Q63.82843472900391,37.23483219256592,63.787434729003905,37.173560192565915Q63.746534729003905,37.11228919256592,63.71173472900391,37.04730019256592Q63.67703472900391,36.982311192565916,63.64883472900391,36.91423019256592Q63.6206347290039,36.84614919256592,63.5992347290039,36.775632192565915Q63.577834729003904,36.70511519256592,63.56343472900391,36.632840192565915Q63.5491347290039,36.560566192565915,63.54183472900391,36.487231192565915Q63.534634729003905,36.41389549256592,63.534634729003905,36.34020519256592Q63.534634729003905,36.266514892565915,63.54183472900391,36.19317919256592Q63.5491347290039,36.11984419256592,63.56343472900391,36.04757019256592Q63.577834729003904,35.975295192565916,63.5992347290039,35.90477819256592Q63.6206347290039,35.83426119256592,63.64883472900391,35.76618019256592Q63.67703472900391,35.69809919256592,63.71173472900391,35.633110192565915Q63.746534729003905,35.56812119256592,63.787434729003905,35.50685019256592Q63.82843472900391,35.44557819256592,63.8751347290039,35.388615192565915Q63.921834729003905,35.33165519256592,63.974034729003904,35.27954519256592Q64.0261347290039,35.22743519256592,64.08303472900391,35.18068519256592Q64.1400347290039,35.13394519256592,64.2013347290039,35.09300519256592Q64.2625347290039,35.05206519256592,64.3275347290039,35.01732519256592Q64.3925347290039,34.98258519256592,64.46063472900391,34.954385192565915Q64.5287347290039,34.92618519256592,64.59923472900391,34.90479519256592Q64.6697347290039,34.88340519256592,64.7420347290039,34.86902519256592Q64.8143347290039,34.854655192565914,64.8876347290039,34.847425192565915Q64.96093472900391,34.84020519256592,65.0346347290039,34.84020519256592Q65.1083347290039,34.84020519256592,65.1816347290039,34.847425192565915Q65.25503472900391,34.854655192565914,65.32733472900391,34.86902519256592Q65.3995347290039,34.88340519256592,65.47003472900391,34.90479519256592Q65.5406347290039,34.92618519256592,65.60863472900391,34.954385192565915Q65.6767347290039,34.98258519256592,65.74173472900391,35.01732519256592Q65.8067347290039,35.05206519256592,65.86803472900391,35.09300519256592Q65.92923472900391,35.13394519256592,65.98623472900391,35.18068519256592Q66.0432347290039,35.22743519256592,66.09533472900391,35.27954519256592Q66.1474347290039,35.33165519256592,66.1941347290039,35.388615192565915Q66.2409347290039,35.44557819256592,66.2818347290039,35.50685019256592Q66.32283472900392,35.56812119256592,66.3575347290039,35.633110192565915Q66.3922347290039,35.69809919256592,66.42043472900392,35.76618019256592Q66.44863472900391,35.83426119256592,66.47003472900391,35.90477819256592Q66.49143472900391,35.975295192565916,66.50583472900391,36.04757019256592Q66.5202347290039,36.11984419256592,66.52743472900391,36.19317919256592Q66.5346347290039,36.266514892565915,66.5346347290039,36.34020519256592ZM31.846534729003906,36.34020519256592Q31.846534729003906,36.41389549256592,31.839314729003906,36.487231192565915Q31.832084729003906,36.560566192565915,31.817714729003907,36.632840192565915Q31.803334729003907,36.70511519256592,31.781944729003907,36.775632192565915Q31.760554729003907,36.84614919256592,31.732354729003905,36.91423019256592Q31.704154729003907,36.982311192565916,31.669414729003908,37.04730019256592Q31.634674729003905,37.11228919256592,31.593734729003906,37.173560192565915Q31.552794729003907,37.23483219256592,31.506054729003907,37.29179519256592Q31.459304729003907,37.34875519256592,31.407194729003905,37.40086519256592Q31.355084729003906,37.452975192565916,31.298124729003906,37.49972519256592Q31.241161729003906,37.54646519256592,31.179889729003907,37.58740519256592Q31.118618729003906,37.62834519256592,31.053629729003905,37.663085192565916Q30.988640729003905,37.697825192565915,30.920559729003905,37.72602519256592Q30.852478729003906,37.75422519256592,30.781961729003907,37.775615192565915Q30.711444729003905,37.79700519256592,30.639169729003907,37.811385192565915Q30.566895729003907,37.82575519256592,30.493560729003907,37.83298519256592Q30.420225029003905,37.84020519256592,30.346534729003906,37.84020519256592Q30.272844429003907,37.84020519256592,30.199508729003906,37.83298519256592Q30.126173729003906,37.82575519256592,30.053899729003906,37.811385192565915Q29.981624729003908,37.79700519256592,29.911107729003906,37.775615192565915Q29.840590729003907,37.75422519256592,29.772509729003907,37.72602519256592Q29.704428729003908,37.697825192565915,29.639439729003907,37.663085192565916Q29.574450729003907,37.62834519256592,29.513179729003905,37.58740519256592Q29.451907729003906,37.54646519256592,29.394944729003907,37.49972519256592Q29.337984729003907,37.452975192565916,29.285874729003908,37.40086519256592Q29.233764729003905,37.34875519256592,29.187014729003906,37.29179519256592Q29.140274729003906,37.23483219256592,29.099334729003907,37.173560192565915Q29.058394729003908,37.11228919256592,29.023654729003905,37.04730019256592Q28.988914729003906,36.982311192565916,28.960714729003907,36.91423019256592Q28.932514729003906,36.84614919256592,28.911124729003905,36.775632192565915Q28.889734729003905,36.70511519256592,28.875354729003906,36.632840192565915Q28.860984729003906,36.560566192565915,28.853754729003906,36.487231192565915Q28.846534729003906,36.41389549256592,28.846534729003906,36.34020519256592Q28.846534729003906,36.266514892565915,28.853754729003906,36.19317919256592Q28.860984729003906,36.11984419256592,28.875354729003906,36.04757019256592Q28.889734729003905,35.975295192565916,28.911124729003905,35.90477819256592Q28.932514729003906,35.83426119256592,28.960714729003907,35.76618019256592Q28.988914729003906,35.69809919256592,29.023654729003905,35.633110192565915Q29.058394729003908,35.56812119256592,29.099334729003907,35.50685019256592Q29.140274729003906,35.44557819256592,29.187014729003906,35.388615192565915Q29.233764729003905,35.33165519256592,29.285874729003908,35.27954519256592Q29.337984729003907,35.22743519256592,29.394944729003907,35.18068519256592Q29.451907729003906,35.13394519256592,29.513179729003905,35.09300519256592Q29.574450729003907,35.05206519256592,29.639439729003907,35.01732519256592Q29.704428729003908,34.98258519256592,29.772509729003907,34.954385192565915Q29.840590729003907,34.92618519256592,29.911107729003906,34.90479519256592Q29.981624729003908,34.88340519256592,30.053899729003906,34.86902519256592Q30.126173729003906,34.854655192565914,30.199508729003906,34.847425192565915Q30.272844429003907,34.84020519256592,30.346534729003906,34.84020519256592Q30.420225029003905,34.84020519256592,30.493560729003907,34.847425192565915Q30.566895729003907,34.854655192565914,30.639169729003907,34.86902519256592Q30.711444729003905,34.88340519256592,30.781961729003907,34.90479519256592Q30.852478729003906,34.92618519256592,30.920559729003905,34.954385192565915Q30.988640729003905,34.98258519256592,31.053629729003905,35.01732519256592Q31.118618729003906,35.05206519256592,31.179889729003907,35.09300519256592Q31.241161729003906,35.13394519256592,31.298124729003906,35.18068519256592Q31.355084729003906,35.22743519256592,31.407194729003905,35.27954519256592Q31.459304729003907,35.33165519256592,31.506054729003907,35.388615192565915Q31.552794729003907,35.44557819256592,31.593734729003906,35.50685019256592Q31.634674729003905,35.56812119256592,31.669414729003908,35.633110192565915Q31.704154729003907,35.69809919256592,31.732354729003905,35.76618019256592Q31.760554729003907,35.83426119256592,31.781944729003907,35.90477819256592Q31.803334729003907,35.975295192565916,31.817714729003907,36.04757019256592Q31.832084729003906,36.11984419256592,31.839314729003906,36.19317919256592Q31.846534729003906,36.266514892565915,31.846534729003906,36.34020519256592Z" fill="#BFE1FF" fill-opacity="1"/></g><g style="mix-blend-mode:passthrough"><path d="M65.0346347290039,44.79910945892334L30.346534729003906,44.79910945892334L30.346534729003906,41.79910945892334L65.0346347290039,41.79910945892334L65.0346347290039,44.79910945892334ZM66.5346347290039,43.29910945892334Q66.5346347290039,43.37279975892334,66.52743472900391,43.44613545892334Q66.5202347290039,43.51947045892334,66.50583472900391,43.59174445892334Q66.49143472900391,43.66401945892334,66.47003472900391,43.73453645892334Q66.44863472900391,43.80505345892334,66.42043472900392,43.87313445892334Q66.3922347290039,43.94121545892334,66.3575347290039,44.00620445892334Q66.32283472900392,44.07119345892334,66.2818347290039,44.13246445892334Q66.2409347290039,44.19373645892334,66.1941347290039,44.25069945892334Q66.1474347290039,44.30765945892334,66.09533472900391,44.35976945892334Q66.0432347290039,44.41187945892334,65.98623472900391,44.45862945892334Q65.92923472900391,44.50536945892334,65.86803472900391,44.54630945892334Q65.8067347290039,44.58724945892334,65.74173472900391,44.62198945892334Q65.6767347290039,44.65672945892334,65.60863472900391,44.68492945892334Q65.5406347290039,44.71312945892334,65.47003472900391,44.73451945892334Q65.3995347290039,44.75590945892334,65.32733472900391,44.77028945892334Q65.25503472900391,44.78465945892334,65.1816347290039,44.79188945892334Q65.1083347290039,44.79910945892334,65.0346347290039,44.79910945892334Q64.96093472900391,44.79910945892334,64.8876347290039,44.79188945892334Q64.8143347290039,44.78465945892334,64.7420347290039,44.77028945892334Q64.6697347290039,44.75590945892334,64.59923472900391,44.73451945892334Q64.5287347290039,44.71312945892334,64.46063472900391,44.68492945892334Q64.3925347290039,44.65672945892334,64.3275347290039,44.62198945892334Q64.2625347290039,44.58724945892334,64.2013347290039,44.54630945892334Q64.1400347290039,44.50536945892334,64.08303472900391,44.45862945892334Q64.0261347290039,44.41187945892334,63.974034729003904,44.35976945892334Q63.921834729003905,44.30765945892334,63.8751347290039,44.25069945892334Q63.82843472900391,44.19373645892334,63.787434729003905,44.13246445892334Q63.746534729003905,44.07119345892334,63.71173472900391,44.00620445892334Q63.67703472900391,43.94121545892334,63.64883472900391,43.87313445892334Q63.6206347290039,43.80505345892334,63.5992347290039,43.73453645892334Q63.577834729003904,43.66401945892334,63.56343472900391,43.59174445892334Q63.5491347290039,43.51947045892334,63.54183472900391,43.44613545892334Q63.534634729003905,43.37279975892334,63.534634729003905,43.29910945892334Q63.534634729003905,43.22541915892334,63.54183472900391,43.15208345892334Q63.5491347290039,43.07874845892334,63.56343472900391,43.00647445892334Q63.577834729003904,42.93419945892334,63.5992347290039,42.86368245892334Q63.6206347290039,42.79316545892334,63.64883472900391,42.72508445892334Q63.67703472900391,42.65700345892334,63.71173472900391,42.59201445892334Q63.746534729003905,42.52702545892334,63.787434729003905,42.46575445892334Q63.82843472900391,42.40448245892334,63.8751347290039,42.34751945892334Q63.921834729003905,42.29055945892334,63.974034729003904,42.23844945892334Q64.0261347290039,42.18633945892334,64.08303472900391,42.13958945892334Q64.1400347290039,42.09284945892334,64.2013347290039,42.05190945892334Q64.2625347290039,42.01096945892334,64.3275347290039,41.97622945892334Q64.3925347290039,41.94148945892334,64.46063472900391,41.91328945892334Q64.5287347290039,41.88508945892334,64.59923472900391,41.86369945892334Q64.6697347290039,41.84230945892334,64.7420347290039,41.82792945892334Q64.8143347290039,41.813559458923336,64.8876347290039,41.80632945892334Q64.96093472900391,41.79910945892334,65.0346347290039,41.79910945892334Q65.1083347290039,41.79910945892334,65.1816347290039,41.80632945892334Q65.25503472900391,41.813559458923336,65.32733472900391,41.82792945892334Q65.3995347290039,41.84230945892334,65.47003472900391,41.86369945892334Q65.5406347290039,41.88508945892334,65.60863472900391,41.91328945892334Q65.6767347290039,41.94148945892334,65.74173472900391,41.97622945892334Q65.8067347290039,42.01096945892334,65.86803472900391,42.05190945892334Q65.92923472900391,42.09284945892334,65.98623472900391,42.13958945892334Q66.0432347290039,42.18633945892334,66.09533472900391,42.23844945892334Q66.1474347290039,42.29055945892334,66.1941347290039,42.34751945892334Q66.2409347290039,42.40448245892334,66.2818347290039,42.46575445892334Q66.32283472900392,42.52702545892334,66.3575347290039,42.59201445892334Q66.3922347290039,42.65700345892334,66.42043472900392,42.72508445892334Q66.44863472900391,42.79316545892334,66.47003472900391,42.86368245892334Q66.49143472900391,42.93419945892334,66.50583472900391,43.00647445892334Q66.5202347290039,43.07874845892334,66.52743472900391,43.15208345892334Q66.5346347290039,43.22541915892334,66.5346347290039,43.29910945892334ZM31.846534729003906,43.29910945892334Q31.846534729003906,43.37279975892334,31.839314729003906,43.44613545892334Q31.832084729003906,43.51947045892334,31.817714729003907,43.59174445892334Q31.803334729003907,43.66401945892334,31.781944729003907,43.73453645892334Q31.760554729003907,43.80505345892334,31.732354729003905,43.87313445892334Q31.704154729003907,43.94121545892334,31.669414729003908,44.00620445892334Q31.634674729003905,44.07119345892334,31.593734729003906,44.13246445892334Q31.552794729003907,44.19373645892334,31.506054729003907,44.25069945892334Q31.459304729003907,44.30765945892334,31.407194729003905,44.35976945892334Q31.355084729003906,44.41187945892334,31.298124729003906,44.45862945892334Q31.241161729003906,44.50536945892334,31.179889729003907,44.54630945892334Q31.118618729003906,44.58724945892334,31.053629729003905,44.62198945892334Q30.988640729003905,44.65672945892334,30.920559729003905,44.68492945892334Q30.852478729003906,44.71312945892334,30.781961729003907,44.73451945892334Q30.711444729003905,44.75590945892334,30.639169729003907,44.77028945892334Q30.566895729003907,44.78465945892334,30.493560729003907,44.79188945892334Q30.420225029003905,44.79910945892334,30.346534729003906,44.79910945892334Q30.272844429003907,44.79910945892334,30.199508729003906,44.79188945892334Q30.126173729003906,44.78465945892334,30.053899729003906,44.77028945892334Q29.981624729003908,44.75590945892334,29.911107729003906,44.73451945892334Q29.840590729003907,44.71312945892334,29.772509729003907,44.68492945892334Q29.704428729003908,44.65672945892334,29.639439729003907,44.62198945892334Q29.574450729003907,44.58724945892334,29.513179729003905,44.54630945892334Q29.451907729003906,44.50536945892334,29.394944729003907,44.45862945892334Q29.337984729003907,44.41187945892334,29.285874729003908,44.35976945892334Q29.233764729003905,44.30765945892334,29.187014729003906,44.25069945892334Q29.140274729003906,44.19373645892334,29.099334729003907,44.13246445892334Q29.058394729003908,44.07119345892334,29.023654729003905,44.00620445892334Q28.988914729003906,43.94121545892334,28.960714729003907,43.87313445892334Q28.932514729003906,43.80505345892334,28.911124729003905,43.73453645892334Q28.889734729003905,43.66401945892334,28.875354729003906,43.59174445892334Q28.860984729003906,43.51947045892334,28.853754729003906,43.44613545892334Q28.846534729003906,43.37279975892334,28.846534729003906,43.29910945892334Q28.846534729003906,43.22541915892334,28.853754729003906,43.15208345892334Q28.860984729003906,43.07874845892334,28.875354729003906,43.00647445892334Q28.889734729003905,42.93419945892334,28.911124729003905,42.86368245892334Q28.932514729003906,42.79316545892334,28.960714729003907,42.72508445892334Q28.988914729003906,42.65700345892334,29.023654729003905,42.59201445892334Q29.058394729003908,42.52702545892334,29.099334729003907,42.46575445892334Q29.140274729003906,42.40448245892334,29.187014729003906,42.34751945892334Q29.233764729003905,42.29055945892334,29.285874729003908,42.23844945892334Q29.337984729003907,42.18633945892334,29.394944729003907,42.13958945892334Q29.451907729003906,42.09284945892334,29.513179729003905,42.05190945892334Q29.574450729003907,42.01096945892334,29.639439729003907,41.97622945892334Q29.704428729003908,41.94148945892334,29.772509729003907,41.91328945892334Q29.840590729003907,41.88508945892334,29.911107729003906,41.86369945892334Q29.981624729003908,41.84230945892334,30.053899729003906,41.82792945892334Q30.126173729003906,41.813559458923336,30.199508729003906,41.80632945892334Q30.272844429003907,41.79910945892334,30.346534729003906,41.79910945892334Q30.420225029003905,41.79910945892334,30.493560729003907,41.80632945892334Q30.566895729003907,41.813559458923336,30.639169729003907,41.82792945892334Q30.711444729003905,41.84230945892334,30.781961729003907,41.86369945892334Q30.852478729003906,41.88508945892334,30.920559729003905,41.91328945892334Q30.988640729003905,41.94148945892334,31.053629729003905,41.97622945892334Q31.118618729003906,42.01096945892334,31.179889729003907,42.05190945892334Q31.241161729003906,42.09284945892334,31.298124729003906,42.13958945892334Q31.355084729003906,42.18633945892334,31.407194729003905,42.23844945892334Q31.459304729003907,42.29055945892334,31.506054729003907,42.34751945892334Q31.552794729003907,42.40448245892334,31.593734729003906,42.46575445892334Q31.634674729003905,42.52702545892334,31.669414729003908,42.59201445892334Q31.704154729003907,42.65700345892334,31.732354729003905,42.72508445892334Q31.760554729003907,42.79316545892334,31.781944729003907,42.86368245892334Q31.803334729003907,42.93419945892334,31.817714729003907,43.00647445892334Q31.832084729003906,43.07874845892334,31.839314729003906,43.15208345892334Q31.846534729003906,43.22541915892334,31.846534729003906,43.29910945892334Z" fill="#BFE1FF" fill-opacity="1"/></g><g style="mix-blend-mode:passthrough"><path d="M34.92079210281372 11.59793758392334C34.92079210281372 11.59793758392334 34.92079210281372 11.59793758392334 34.92079210281372 11.59793758392334L60.0696816444397 11.59793758392334C60.0696816444397 11.59793758392334 60.0696816444397 11.59793758392334 60.0696816444397 11.59793758392334L60.0696816444397 13.144329309463501C60.0696816444397 13.998377876743858 59.377338486179895 14.690721035003662 58.523289918899536 14.690721035003662L36.46718382835388 14.690721035003662C35.61313526107352 14.690721035003662 34.92079210281372 13.998377876743858 34.92079210281372 13.144329309463501Z" fill="#34A0FF" fill-opacity="1"/></g></g><g style="mix-blend-mode:passthrough" mask="url(#master_svg3_949_29500)"><g style="mix-blend-mode:passthrough"><path d="M9,72.99992109375C9,74.10442109375,9.895431,74.99992109375,11,74.99992109375L78.2418,74.99992109375C80.3082,74.99992109375,81.0175,72.24812109375,79.2087,71.24912109375L9,32.47412109375L9,72.99992109375Z" fill="#E4E4E4" fill-opacity="1"/></g><g style="mix-blend-mode:passthrough" transform="matrix(-1,0,0,1,172,0)"><path d="M86,74.99992109375L163,74.99992109375L86,32.47412109375L86,74.99992109375Z" fill="url(#master_svg4_949_6791)" fill-opacity="1"/></g></g><g style="mix-blend-mode:passthrough"><path d="M9,61.855528125L14.20322,64.948328125L14.20322,61.855528125L9,58.762728125L9,61.855528125ZM9,46.391608125L14.20322,49.484398125L14.20322,46.391608125L9,43.298828125L9,46.391608125ZM9,54.123528125L14.20322,57.216328125000004L14.20322,54.123528125L9,51.030788125L9,54.123528125Z" fill="#B9B9B9" fill-opacity="1"/></g><g style="mix-blend-mode:passthrough" transform="matrix(-1,0,0,1,171.7333984375,0)"><path d="M85.86669921875,61.855528125L91.06991921875,64.948328125L91.06991921875,61.855528125L85.86669921875,58.762728125L85.86669921875,61.855528125ZM85.86669921875,46.391608125L91.06991921875,49.484398125L91.06991921875,46.391608125L85.86669921875,43.298828125L85.86669921875,46.391608125ZM85.86669921875,54.123528125L91.06991921875,57.216328125000004L91.06991921875,54.123528125L85.86669921875,51.030788125L85.86669921875,54.123528125Z" fill="#C7C7C7" fill-opacity="1"/></g></g><g style="mix-blend-mode:passthrough" transform="matrix(0.993805468082428,0.11191319674253464,-0.11035981774330139,0.993805468082428,6.083717395536951,-1.8161975683360652)" filter="url(#master_svg5_949_29507)"><path d="M19.22021484375,71.14506328125L21.09394484375,88.01436328125L35.25771484375,88.01436328125Q65.18501484375,83.76846328125,66.26491484375,83.51276328125Q67.34481484375,83.25696328125,82.72551484375,74.10016328125Q92.98451484375,68.60846328125,92.37191484375,66.80076328125Q92.27591484375,66.51746328125,91.91281484375,66.32456328125Q86.55351484375,63.478293281250004,66.26491484375,72.76256328125Q60.97841484375,71.98226328125,54.44641484375,72.22016328125C51.18001484375,72.33906328124999,48.88441484375,72.59756328125,47.39881484375,72.76476328125C45.91371484375,72.93196328125,45.237914843750005,73.00806328125,45.21061484375,72.76256328125C45.156114843750004,72.27136328125,46.77261484375,71.11336328125,57.07761484375,66.32456328125Q67.38251484375,61.53586328125,64.35091484374999,54.04736328125Q53.53781484375,61.00446328125,42.087814843749996,61.00446328125Q30.63781484375,61.00446328125,25.68760484375,70.41696328124999L19.22021484375,71.14506328125Z" fill="url(#master_svg6_949_6762)" fill-opacity="1"/></g><g style="mix-blend-mode:passthrough"><path d="M2 69C2 69 2 69 2 69L15 69C16.104569499661586 69 17 69.8954305003384 17 71L17 88C17 89.1045694996616 16.104569499661586 90 15 90L2 90C2 90 2 90 2 90Z" fill="#8E8E8E" fill-opacity="1"/></g><g style="mix-blend-mode:passthrough"><path d="M8.2787,3.567896C8.46148,2.810701,9.538509999999999,2.810701,9.72129,3.567896C9.72129,3.567896,10.336459999999999,6.11633,10.336459999999999,6.11633C10.401779999999999,6.386950000000001,10.61308,6.59821,10.88365,6.66352C10.88365,6.66352,13.4321,7.2787,13.4321,7.2787C14.1893,7.46148,14.1893,8.538509999999999,13.4321,8.72129C13.4321,8.72129,10.88365,9.336459999999999,10.88365,9.336459999999999C10.61308,9.401779999999999,10.401779999999999,9.61308,10.336459999999999,9.88365C10.336459999999999,9.88365,9.72129,12.4321,9.72129,12.4321C9.538509999999999,13.1893,8.46148,13.1893,8.2787,12.4321C8.2787,12.4321,7.66352,9.88365,7.66352,9.88365C7.59821,9.61308,7.386950000000001,9.401779999999999,7.11633,9.336459999999999C7.11633,9.336459999999999,4.567896,8.72129,4.567896,8.72129C3.810701,8.538509999999999,3.810701,7.46148,4.567896,7.2787C4.567896,7.2787,7.11633,6.66352,7.11633,6.66352C7.386950000000001,6.59821,7.59821,6.386950000000001,7.66352,6.11633C7.66352,6.11633,8.2787,3.567896,8.2787,3.567896Z" fill="url(#master_svg7_711_6981)" fill-opacity="1"/></g><g style="mix-blend-mode:passthrough"><ellipse cx="10" cy="83" rx="3" ry="3" fill="#F3F3F3" fill-opacity="1"/></g></g></svg>