<svg xmlns="http://www.w3.org/2000/svg" xmlns:xlink="http://www.w3.org/1999/xlink" fill="none" version="1.1" width="48" height="48" viewBox="0 0 48 48"><g style="mix-blend-mode:passthrough"><g><g style="mix-blend-mode:passthrough"></g><g style="mix-blend-mode:passthrough"><g><g style="mix-blend-mode:passthrough"><rect x="9" y="6" width="30" height="36" rx="2" fill-opacity="0" stroke-opacity="1" stroke="#19191A" stroke-width="2" fill="none" stroke-dasharray=""/></g><g style="mix-blend-mode:passthrough"><path d="M18.2421875,27.48529052734375Q18.2421875,24.58579052734375,20.2924375,22.53554052734375Q22.3426875,20.48529052734375,25.2421875,20.48529052734375L25.2421875,22.48529052734375Q23.1711175,22.48529052734375,21.7066575,23.94976052734375Q20.2421875,25.41422052734375,20.2421875,27.48529052734375L18.2421875,27.48529052734375ZM20.2421875,27.48529052734375Q20.2421875,27.583780527343748,20.2229725,27.68038052734375Q20.203757500000002,27.77698052734375,20.1660665,27.86797052734375Q20.1283755,27.95897052734375,20.0736575,28.04086052734375Q20.0189385,28.12275052734375,19.9492945,28.19240052734375Q19.8796505,28.26204052734375,19.7977575,28.31676052734375Q19.7158655,28.37148052734375,19.6248705,28.40917052734375Q19.5338765,28.446860527343752,19.4372775,28.46607052734375Q19.3406789,28.48529052734375,19.2421875,28.48529052734375Q19.1436961,28.48529052734375,19.0470975,28.46607052734375Q18.9504985,28.446860527343752,18.8595045,28.40917052734375Q18.7685095,28.37148052734375,18.6866175,28.31676052734375Q18.6047245,28.26204052734375,18.5350805,28.19240052734375Q18.4654365,28.12275052734375,18.4107175,28.04086052734375Q18.3559995,27.95897052734375,18.3183085,27.86797052734375Q18.280617499999998,27.77698052734375,18.2614025,27.68038052734375Q18.2421875,27.583780527343748,18.2421875,27.48529052734375Q18.2421875,27.386800527343752,18.2614025,27.29020052734375Q18.280617499999998,27.19360052734375,18.3183085,27.10260052734375Q18.3559995,27.01161052734375,18.4107175,26.92972052734375Q18.4654365,26.84783052734375,18.5350805,26.77818052734375Q18.6047245,26.70854052734375,18.6866175,26.65382052734375Q18.7685095,26.59910052734375,18.8595045,26.56141052734375Q18.9504985,26.523720527343748,19.0470975,26.50450052734375Q19.1436961,26.48529052734375,19.2421875,26.48529052734375Q19.3406789,26.48529052734375,19.4372775,26.50450052734375Q19.5338765,26.523720527343748,19.6248705,26.56141052734375Q19.7158655,26.59910052734375,19.7977575,26.65382052734375Q19.8796505,26.70854052734375,19.9492945,26.77818052734375Q20.0189385,26.84783052734375,20.0736575,26.92972052734375Q20.1283755,27.01161052734375,20.1660665,27.10260052734375Q20.203757500000002,27.19360052734375,20.2229725,27.29020052734375Q20.2421875,27.386800527343752,20.2421875,27.48529052734375ZM26.2421875,21.48529052734375Q26.2421875,21.58378192734375,26.2229675,21.68038052734375Q26.203757500000002,21.77697952734375,26.1660675,21.86797352734375Q26.1283775,21.95896852734375,26.0736575,22.04086052734375Q26.0189375,22.12275352734375,25.9492975,22.19239752734375Q25.8796475,22.26204152734375,25.7977575,22.31676052734375Q25.7158675,22.37147852734375,25.6248675,22.40916952734375Q25.5338775,22.446860527343752,25.4372775,22.46607552734375Q25.340677499999998,22.48529052734375,25.2421875,22.48529052734375Q25.143697500000002,22.48529052734375,25.0470975,22.46607552734375Q24.9504975,22.446860527343752,24.8594975,22.40916952734375Q24.7685075,22.37147852734375,24.6866175,22.31676052734375Q24.6047275,22.26204152734375,24.5350775,22.19239752734375Q24.4654375,22.12275352734375,24.4107175,22.04086052734375Q24.3559975,21.95896852734375,24.3183075,21.86797352734375Q24.280617499999998,21.77697952734375,24.2613975,21.68038052734375Q24.2421875,21.58378192734375,24.2421875,21.48529052734375Q24.2421875,21.38679912734375,24.2613975,21.29020052734375Q24.280617499999998,21.19360152734375,24.3183075,21.10260752734375Q24.3559975,21.01161252734375,24.4107175,20.92972052734375Q24.4654375,20.84782752734375,24.5350775,20.77818352734375Q24.6047275,20.70853952734375,24.6866175,20.65382052734375Q24.7685075,20.59910252734375,24.8594975,20.56141152734375Q24.9504975,20.523720527343748,25.0470975,20.50450552734375Q25.143697500000002,20.48529052734375,25.2421875,20.48529052734375Q25.340677499999998,20.48529052734375,25.4372775,20.50450552734375Q25.5338775,20.523720527343748,25.6248675,20.56141152734375Q25.7158675,20.59910252734375,25.7977575,20.65382052734375Q25.8796475,20.70853952734375,25.9492975,20.77818352734375Q26.0189375,20.84782752734375,26.0736575,20.92972052734375Q26.1283775,21.01161252734375,26.1660675,21.10260752734375Q26.203757500000002,21.19360152734375,26.2229675,21.29020052734375Q26.2421875,21.38679912734375,26.2421875,21.48529052734375Z" transform="matrix(-0.7071067690849304,-0.7071067690849304,0.7071067690849304,-0.7071067690849304,17.656074165610335,50.283965928236285)" fill="#C00000" fill-opacity="1"/></g><g style="mix-blend-mode:passthrough"><g><g style="mix-blend-mode:passthrough"><rect x="14" y="28" width="15.999996185302734" height="1.999999761581421" rx="0.9999998807907104" fill="#19191A" fill-opacity="1"/></g><g style="mix-blend-mode:passthrough"><path d="M14,34C14,34.55228,14.447715,35,15,35L25,35C25.552300000000002,35,26,34.55228,26,34C26,33.447715,25.552300000000002,33,25,33L15,33C14.447715,33,14,33.447715,14,34Z" fill="#19191A" fill-opacity="1"/></g></g></g></g></g></g></g></svg>