<svg xmlns="http://www.w3.org/2000/svg" xmlns:xlink="http://www.w3.org/1999/xlink" fill="none" version="1.1" width="48" height="48" viewBox="0 0 48 48"><g style="mix-blend-mode:passthrough"><g style="mix-blend-mode:passthrough"></g><g style="mix-blend-mode:passthrough"><g style="mix-blend-mode:passthrough"><g style="mix-blend-mode:passthrough"><path d="M23.937400012868874,16.47043L15.816860012868874,8.34994Q15.466930012868874,8,14.972040012868874,8Q14.477160012868874,8,14.127220012868875,8.34994L7.849940012868874,14.627220000000001L7.849330012868874,14.62783L7.847530012868874,14.62964Q7.498965012868874,14.979669999999999,7.500000012868874,15.47455Q7.501040012868874,15.96943,7.851710012868874,16.318640000000002L15.927500012868874,24.3606L14.516260012868875,25.7778L6.440466512868874,17.735799999999998Q5.502783012868874,16.80206,5.500007012868874,15.47875Q5.497230012868874,14.155439999999999,6.431627612868874,13.21711L6.435114612868874,13.213619999999999L6.435722912868874,13.21301L12.713010012868875,6.9357231Q13.648730012868874,6,14.972040012868874,6Q16.295360012868876,6,17.231100012868872,6.9357232L25.351600012868875,15.05622L23.937400012868874,16.47043ZM25.079900012868872,33.4747L31.818000012868875,40.1846Q32.16810001286888,40.5332,32.66230001286887,40.5327Q33.15640001286887,40.5322,33.505800012868875,40.1828L39.732900012868875,33.9557Q40.082900012868876,33.6057,40.082900012868876,33.1108Q40.082900012868876,32.616,39.732900012868875,32.266L32.897700012868874,25.4308L33.60480001286888,24.7237L34.32050001286888,25.422L25.090000012868874,34.881699999999995L24.374300012868876,34.1833L25.079900012868872,33.4747ZM23.668600012868875,34.8919L22.967200012868872,34.1934L33.596100012868874,23.3007L41.14720001286887,30.8518Q42.082900012868876,31.7875,42.082900012868876,33.1108Q42.082900012868876,34.434200000000004,41.14720001286887,35.3699L34.920000012868876,41.597Q33.985700012868875,42.5313,32.664400012868875,42.5327Q31.343000012868874,42.5341,30.406700012868875,41.6017L23.668600012868875,34.8919Z" fill="#19191A" fill-opacity="1"/></g><g style="mix-blend-mode:passthrough"><path d="M10.156515665405273,19.382479980163573L12.210302665405273,17.328692980163574Q12.279942665405274,17.259048980163573,12.361842665405273,17.204329980163575Q12.443732665405273,17.149610980163573,12.534722665405273,17.111920980163575Q12.625722665405274,17.074229980163572,12.722322665405274,17.055014980163573Q12.818912665405273,17.035799980163574,12.917412665405273,17.035799980163574Q13.015902665405275,17.035799980163574,13.112502665405273,17.055014980163573Q13.209102665405274,17.074229980163572,13.300092665405273,17.111920980163575Q13.391082665405273,17.149611980163574,13.472982665405274,17.204329980163575Q13.554872665405274,17.259048980163573,13.624512665405273,17.328692980163574Q13.694162665405273,17.398336980163574,13.748882665405274,17.480229980163575Q13.803592665405274,17.562122980163576,13.841292665405273,17.653116980163574Q13.878982665405273,17.744110980163573,13.898192665405274,17.840709980163574Q13.917412665405273,17.937308680163575,13.917412665405273,18.035800102368576Q13.917412665405273,18.134291480163576,13.898192665405274,18.230889980163575Q13.878982665405273,18.327488980163576,13.841292665405273,18.418483980163575Q13.803592665405274,18.509477980163574,13.748882665405274,18.591369980163574Q13.694162665405273,18.673262980163575,13.624512665405273,18.742906980163575L11.570729665405274,20.796689980163574Q11.501085665405274,20.866339980163573,11.419192665405273,20.921059980163573Q11.337299665405274,20.975769980163573,11.246305665405274,21.013459980163574Q11.155311665405273,21.051159980163575,11.058712665405274,21.070369980163573Q10.962113965405273,21.089589980163574,10.863622543200274,21.089589980163574Q10.765131165405274,21.089589980163574,10.668532665405273,21.070369980163573Q10.571933665405274,21.051159980163575,10.480938665405274,21.013459980163574Q10.389944665405274,20.975769980163573,10.308052665405274,20.921059980163573Q10.226159665405273,20.866339980163573,10.156515665405273,20.796689980163574Q10.086871665405273,20.727049980163574,10.032152665405274,20.645159980163573Q9.977433665405274,20.563259980163576,9.939743665405274,20.472269980163574Q9.902052665405273,20.381269980163573,9.882837665405273,20.284679980163574Q9.863622665405273,20.188079980163575,9.863622665405273,20.089589980163574Q9.863622665405273,19.991089980163576,9.882837665405273,19.894499980163573Q9.902052665405273,19.797899980163574,9.939743665405274,19.706899980163573Q9.977434665405273,19.615909980163575,10.032152665405274,19.534019980163574Q10.086871665405273,19.452119980163573,10.156515665405273,19.382479980163573ZM11.863622665405273,20.089589980163574Q11.863622665405273,20.188079980163575,11.844407665405274,20.284679980163574Q11.825192665405273,20.381269980163573,11.787501665405273,20.472269980163574Q11.749810665405274,20.563259980163576,11.695092665405273,20.645159980163573Q11.640373665405274,20.727049980163574,11.570729665405274,20.796689980163574Q11.501085665405274,20.866339980163573,11.419192665405273,20.921059980163573Q11.337300665405273,20.975769980163573,11.246305665405274,21.013459980163574Q11.155311665405273,21.051159980163575,11.058712665405274,21.070369980163573Q10.962114065405274,21.089589980163574,10.863622665405273,21.089589980163574Q10.765131265405273,21.089589980163574,10.668532665405273,21.070369980163573Q10.571933665405274,21.051159980163575,10.480939665405273,21.013459980163574Q10.389944665405274,20.975769980163573,10.308052665405274,20.921059980163573Q10.226159665405273,20.866339980163573,10.156515665405273,20.796689980163574Q10.086871665405273,20.727049980163574,10.032152665405274,20.645159980163573Q9.977434665405273,20.563259980163576,9.939743665405274,20.472269980163574Q9.902052665405273,20.381269980163573,9.882837665405273,20.284679980163574Q9.863622665405273,20.188079980163575,9.863622665405273,20.089589980163574Q9.863622665405273,19.991089980163576,9.882837665405273,19.894499980163573Q9.902052665405273,19.797899980163574,9.939743665405274,19.706899980163573Q9.977434665405273,19.615909980163575,10.032152665405274,19.534019980163574Q10.086871665405273,19.452119980163573,10.156515665405273,19.382479980163573Q10.226159665405273,19.312829980163574,10.308052665405274,19.258119980163574Q10.389944665405274,19.203399980163574,10.480939665405273,19.165709980163573Q10.571933665405274,19.128019980163575,10.668532665405273,19.108799980163575Q10.765131265405273,19.089589980163574,10.863622665405273,19.089589980163574Q10.962114065405274,19.089589980163574,11.058712665405274,19.108799980163575Q11.155311665405273,19.128019980163575,11.246305665405274,19.165709980163573Q11.337300665405273,19.203399980163574,11.419192665405273,19.258119980163574Q11.501085665405274,19.312829980163574,11.570729665405274,19.382479980163573Q11.640373665405274,19.452119980163573,11.695092665405273,19.534019980163574Q11.749810665405274,19.615909980163575,11.787501665405273,19.706899980163573Q11.825192665405273,19.797899980163574,11.844407665405274,19.894499980163573Q11.863622665405273,19.991089980163576,11.863622665405273,20.089589980163574ZM13.917412665405273,18.035799980163574Q13.917412665405273,18.134291380163575,13.898192665405274,18.230889980163575Q13.878982665405273,18.327488980163576,13.841292665405273,18.418482980163574Q13.803592665405274,18.509477980163574,13.748882665405274,18.591369980163574Q13.694162665405273,18.673262980163575,13.624512665405273,18.742906980163575Q13.554872665405274,18.812550980163575,13.472982665405274,18.867269980163574Q13.391082665405273,18.921987980163575,13.300092665405273,18.959678980163574Q13.209102665405274,18.997369980163576,13.112502665405273,19.016584980163575Q13.015902665405275,19.035799980163574,12.917412665405273,19.035799980163574Q12.818912665405273,19.035799980163574,12.722322665405274,19.016584980163575Q12.625722665405274,18.997369980163576,12.534722665405273,18.959678980163574Q12.443732665405273,18.921987980163575,12.361842665405273,18.867269980163574Q12.279942665405274,18.812550980163575,12.210302665405273,18.742906980163575Q12.140662665405273,18.673262980163575,12.085942665405273,18.591369980163574Q12.031222665405274,18.509477980163574,11.993532665405274,18.418482980163574Q11.955842665405273,18.327488980163576,11.936622665405274,18.230889980163575Q11.917412665405273,18.134291380163575,11.917412665405273,18.035799980163574Q11.917412665405273,17.937308580163574,11.936622665405274,17.840709980163574Q11.955842665405273,17.744110980163573,11.993532665405274,17.653116980163574Q12.031222665405274,17.562121980163575,12.085942665405273,17.480229980163575Q12.140662665405273,17.398336980163574,12.210302665405273,17.328692980163574Q12.279942665405274,17.259048980163573,12.361842665405273,17.204329980163575Q12.443732665405273,17.149611980163574,12.534722665405273,17.111920980163575Q12.625722665405274,17.074229980163572,12.722322665405274,17.055014980163573Q12.818912665405273,17.035799980163574,12.917412665405273,17.035799980163574Q13.015902665405275,17.035799980163574,13.112502665405273,17.055014980163573Q13.209102665405274,17.074229980163572,13.300092665405273,17.111920980163575Q13.391082665405273,17.149611980163574,13.472982665405274,17.204329980163575Q13.554872665405274,17.259048980163573,13.624512665405273,17.328692980163574Q13.694162665405273,17.398336980163574,13.748882665405274,17.480229980163575Q13.803592665405274,17.562121980163575,13.841292665405273,17.653116980163574Q13.878982665405273,17.744110980163573,13.898192665405274,17.840709980163574Q13.917412665405273,17.937308580163574,13.917412665405273,18.035799980163574Z" fill="#19191A" fill-opacity="1"/></g><g style="mix-blend-mode:passthrough"><path d="M28.036503382080078,36.86257585266113L30.02989038208008,34.86918885266113Q30.09954038208008,34.799544852661136,30.181430382080077,34.74482585266113Q30.263320382080078,34.690107852661136,30.35432038208008,34.65241685266113Q30.445310382080077,34.61472585266113,30.54191038208008,34.595510852661135Q30.638510382080078,34.57629585266113,30.73700038208008,34.57629585266113Q30.835490382080078,34.57629585266113,30.932090382080077,34.595510852661135Q31.02869038208008,34.61472585266113,31.119680382080077,34.65241685266113Q31.210680382080078,34.690107852661136,31.29257038208008,34.744826852661134Q31.374460382080077,34.799544852661136,31.444110382080076,34.86918885266113Q31.51375038208008,34.938832852661136,31.56847038208008,35.02072585266113Q31.62319038208008,35.10261785266113,31.660880382080077,35.19361285266113Q31.698570382080078,35.284606852661135,31.71779038208008,35.38120585266113Q31.73700038208008,35.477804552661134,31.73700038208008,35.576295939950136Q31.73700038208008,35.674787352661134,31.71779038208008,35.77138585266113Q31.698570382080078,35.86798485266113,31.660880382080077,35.95897885266113Q31.62319038208008,36.04997385266113,31.56847038208008,36.131865852661136Q31.51375038208008,36.21375885266113,31.444110382080076,36.28340285266113L29.45071738208008,38.27679585266113Q29.38107338208008,38.34643585266113,29.299180382080078,38.401155852661134Q29.217288382080078,38.45587585266113,29.12629338208008,38.493565852661135Q29.03529938208008,38.53125585266113,28.93870038208008,38.55047585266113Q28.842101682080077,38.56968585266113,28.74361029479108,38.56968585266113Q28.645118882080077,38.56968585266113,28.548520382080078,38.55047585266113Q28.451921382080076,38.53125585266113,28.360927382080078,38.493565852661135Q28.26993238208008,38.45587585266113,28.18804038208008,38.401155852661134Q28.106147382080078,38.34643585266113,28.036503382080078,38.27679585266113Q27.966859382080077,38.207145852661135,27.91214038208008,38.125255852661134Q27.857422382080077,38.04336585266113,27.81973138208008,37.95236585266113Q27.782040382080076,37.86137585266113,27.762825382080077,37.76477585266113Q27.743610382080078,37.668175852661136,27.743610382080078,37.56968585266113Q27.743610382080078,37.47119585266113,27.762825382080077,37.37459585266113Q27.782040382080076,37.277995852661135,27.81973138208008,37.18700585266113Q27.857422382080077,37.096005852661136,27.91214138208008,37.014115852661135Q27.966859382080077,36.932225852661134,28.036503382080078,36.86257585266113ZM29.743610382080078,37.56968585266113Q29.743610382080078,37.668175852661136,29.72439538208008,37.76477585266113Q29.70518038208008,37.86137585266113,29.667489382080078,37.95236585266113Q29.62979838208008,38.04336585266113,29.575080382080078,38.125255852661134Q29.52036138208008,38.207145852661135,29.45071738208008,38.27679585266113Q29.38107338208008,38.34643585266113,29.299180382080078,38.401155852661134Q29.217288382080078,38.45587585266113,29.12629338208008,38.493565852661135Q29.03529938208008,38.53125585266113,28.93870038208008,38.55047585266113Q28.84210178208008,38.56968585266113,28.743610382080078,38.56968585266113Q28.645118982080078,38.56968585266113,28.548520382080078,38.55047585266113Q28.451921382080076,38.53125585266113,28.360927382080078,38.493565852661135Q28.26993238208008,38.45587585266113,28.18804038208008,38.401155852661134Q28.106147382080078,38.34643585266113,28.036503382080078,38.27679585266113Q27.966859382080077,38.207145852661135,27.91214038208008,38.125255852661134Q27.857422382080077,38.04336585266113,27.81973138208008,37.95236585266113Q27.782040382080076,37.86137585266113,27.762825382080077,37.76477585266113Q27.743610382080078,37.668175852661136,27.743610382080078,37.56968585266113Q27.743610382080078,37.47119585266113,27.762825382080077,37.37459585266113Q27.782040382080076,37.277995852661135,27.81973138208008,37.18700585266113Q27.857422382080077,37.096005852661136,27.91214038208008,37.014115852661135Q27.966859382080077,36.932225852661134,28.036503382080078,36.86257585266113Q28.106147382080078,36.79293585266113,28.18804038208008,36.738215852661135Q28.26993238208008,36.68349585266113,28.360927382080078,36.645805852661134Q28.451921382080076,36.608115852661136,28.548520382080078,36.588905852661135Q28.645118982080078,36.569686852661135,28.743610382080078,36.569686852661135Q28.84210178208008,36.569686852661135,28.93870038208008,36.588905852661135Q29.03529938208008,36.608115852661136,29.12629338208008,36.645805852661134Q29.217288382080078,36.68349585266113,29.299180382080078,36.738215852661135Q29.38107338208008,36.79293585266113,29.45071738208008,36.86257585266113Q29.52036138208008,36.932225852661134,29.575080382080078,37.014115852661135Q29.62979838208008,37.096005852661136,29.667489382080078,37.18700585266113Q29.70518038208008,37.277995852661135,29.72439538208008,37.37459585266113Q29.743610382080078,37.47119585266113,29.743610382080078,37.56968585266113ZM31.73700038208008,35.57629585266113Q31.73700038208008,35.67478725266113,31.71779038208008,35.77138585266113Q31.698570382080078,35.86798485266113,31.660880382080077,35.95897885266113Q31.62319038208008,36.04997385266113,31.56847038208008,36.131865852661136Q31.51375038208008,36.21375885266113,31.444110382080076,36.28340285266113Q31.374460382080077,36.35304685266113,31.29257038208008,36.407765852661136Q31.210680382080078,36.46248385266113,31.119680382080077,36.50017485266113Q31.02869038208008,36.537865852661135,30.932090382080077,36.55708085266113Q30.835490382080078,36.57629585266113,30.73700038208008,36.57629585266113Q30.638510382080078,36.57629585266113,30.54191038208008,36.55708085266113Q30.445310382080077,36.537865852661135,30.35432038208008,36.50017485266113Q30.263320382080078,36.46248385266113,30.181430382080077,36.407765852661136Q30.09954038208008,36.35304685266113,30.02989038208008,36.28340285266113Q29.960250382080076,36.21375885266113,29.905530382080077,36.131865852661136Q29.850810382080077,36.04997385266113,29.81312038208008,35.95897885266113Q29.775430382080078,35.86798485266113,29.756220382080077,35.77138585266113Q29.737001382080077,35.67478725266113,29.737001382080077,35.57629585266113Q29.737001382080077,35.47780445266113,29.756220382080077,35.38120585266113Q29.775430382080078,35.284606852661135,29.81312038208008,35.19361285266113Q29.850810382080077,35.10261785266113,29.905530382080077,35.02072585266113Q29.960250382080076,34.938832852661136,30.02989038208008,34.86918885266113Q30.09954038208008,34.799544852661136,30.181430382080077,34.74482585266113Q30.263320382080078,34.690107852661136,30.35432038208008,34.65241685266113Q30.445310382080077,34.61472585266113,30.54191038208008,34.595510852661135Q30.638510382080078,34.57629585266113,30.73700038208008,34.57629585266113Q30.835490382080078,34.57629585266113,30.932090382080077,34.595510852661135Q31.02869038208008,34.61472585266113,31.119680382080077,34.65241685266113Q31.210680382080078,34.690107852661136,31.29257038208008,34.74482585266113Q31.374460382080077,34.799544852661136,31.444110382080076,34.86918885266113Q31.51375038208008,34.938832852661136,31.56847038208008,35.02072585266113Q31.62319038208008,35.10261785266113,31.660880382080077,35.19361285266113Q31.698570382080078,35.284606852661135,31.71779038208008,35.38120585266113Q31.73700038208008,35.47780445266113,31.73700038208008,35.57629585266113Z" fill="#19191A" fill-opacity="1"/></g></g><g style="mix-blend-mode:passthrough"><path d="M37.26882830444336,20.714604910736085L28.34431130444336,11.790081910736085L29.75852530444336,10.375867910736083L38.68304830444336,19.300384910736085L37.26882830444336,20.714604910736085Z" fill="#C00000" fill-opacity="1"/></g><g style="mix-blend-mode:passthrough"><path d="M8.730425820922852,42.59036158800125Q7.479518220922851,42.15866158800125,6.900262820922851,40.96886158800125Q6.321005820922851,39.779061588001255,6.752714820922852,38.528161588001254L9.830615820922851,29.609761588001252Q10.072715820922852,28.908261588001253,10.599235820922852,28.385361588001253L31.412125820922853,7.713420588001251Q32.341725820922846,6.790137588001251,33.651925820922855,6.7853825880012515Q34.96212582092285,6.780631588001251,35.89832582092285,7.697140788001251L41.54012582092285,13.219901588001251L41.544425820922854,13.224121588001251L41.548925820922854,13.22860158800125Q42.49152582092285,14.159181588001251,42.499925820922854,15.482471588001252Q42.50842582092285,16.80575158800125,41.57862582092285,17.74744158800125L41.571425820922855,17.75479158800125L20.95112582092285,38.64026158800125Q20.438225820922852,39.15976158800125,19.750525820922853,39.40496158800125L10.845505820922853,42.57966158800125Q9.789865820922852,42.95606158800125,8.730455820922852,42.590461588001254L8.730425820922852,42.59036158800125ZM9.382895820922851,40.69986158800125Q9.779105820922851,40.83656158800125,10.173885820922852,40.69586158800125L19.07892582092285,37.52106158800125Q19.336125820922852,37.42936158800125,19.527925820922853,37.23516158800125L40.148025820922854,16.34976158800125L40.15542582092285,16.34228158800125Q40.503125820922854,15.990121588001251,40.50002582092285,15.495241588001251Q40.49682582092285,15.00037158800125,40.14552582092285,14.65354158800125L40.14382582092285,14.651861588001251L40.14102582092285,14.649101588001251L34.49922582092285,9.126341588001251Q34.14912582092285,8.78359158800125,33.65912582092285,8.78537158800125Q33.16922582092285,8.787151588001251,32.82152582092285,9.132431588001252L12.008635820922851,29.80436158800125Q11.811735820922852,29.999961588001252,11.721195820922851,30.26226158800125L8.643285820922852,39.18066158800125Q8.48184182092285,39.648461588001254,8.698465820922852,40.093461588001254Q8.91509582092285,40.53836158800125,9.382915820922852,40.69986158800125L9.382895820922851,40.69986158800125Z" fill="#19191A" fill-opacity="1"/></g></g></g></svg>