<?xml version="1.0" encoding="utf-8"?>
<!-- Generator: Adobe Illustrator 24.1.0, SVG Export Plug-In . SVG Version: 6.00 Build 0)  -->
<svg version="1.1" id="图层_1" xmlns="http://www.w3.org/2000/svg" xmlns:xlink="http://www.w3.org/1999/xlink" x="0px" y="0px"
	 viewBox="0 0 154 72" style="enable-background:new 0 0 154 72;" xml:space="preserve">
<style type="text/css">
	.st0{fill:none;}
	.st1{fill:#DAE1E9;}
	.st2{fill:#D9D9DD;}
	.st3{fill:#F5F5F5;}
	.st4{fill:#E0E0E2;}
	.st5{fill:#E8F6FF;}
	.st6{fill:#EDEDEF;}
	.st7{fill-rule:evenodd;clip-rule:evenodd;fill:#E8F6FF;}
	.st8{fill:#FFFFFF;filter:url(#Adobe_OpacityMaskFilter);}
	.st9{mask:url(#master_svg1_159_17775_1_);}
	.st10{fill-rule:evenodd;clip-rule:evenodd;fill:#F5F5F5;}
</style>
<g>
	<rect y="0" class="st0" width="154" height="72"/>
	<g>
		<g>
			<g>
				<g>
					<g>
						<g>
							<g>
								<g>
									<g>
										<path class="st1" d="M65.7,70.6h8.2V43.9h-8.2V70.6z"/>
										<path class="st2" d="M28.3,71h19.8V51.9H28.3V71z"/>
										<path class="st2" d="M46.5,70.8h19.8V55.4H46.5V70.8z"/>
										<path class="st2" d="M69.8,71.2H80V26.4L77.3,23v3h-3.5v-7.3l-4-5V71.2z"/>
										<path class="st3" d="M78.2,70.9H93V31.5H78.2V70.9z"/>
										<path class="st2" d="M93,70.9h9.4V31.5H93V70.9z"/>
										<path class="st4" d="M78.2,36.6h3.5v-1.8h-3.5V36.6z"/>
										<path class="st4" d="M81.7,38.4h3.5v-1.8h-3.5V38.4z"/>
										<path class="st4" d="M88.8,40.2h3.5v-1.8h-3.5V40.2z"/>
										<path class="st4" d="M81.7,48.9h3.5v-1.8h-3.5V48.9z"/>
										<path class="st4" d="M88.8,50.8h3.5v-1.8h-3.5V50.8z"/>
										<path class="st4" d="M85.3,60h3.5v-1.8h-3.5V60z"/>
										<path class="st4" d="M78.2,64.7h3.5v-1.8h-3.5V64.7z"/>
										<path class="st4" d="M81.7,66.6h3.5v-1.8h-3.5V66.6z"/>
										<path class="st5" d="M52.1,39.7h1.4v-2.6h-1.4V39.7z"/>
										<path class="st5" d="M52.1,34.5h1.4v-2.6h-1.4V34.5z"/>
										<path class="st3" d="M50.7,70.9h12.4V4.6H50.7V70.9z"/>
										<path class="st2" d="M63.1,70.9h7.9V4.6h-7.9V70.9z"/>
										<path class="st3" d="M50.7,3h12.4V0H50.7V3z"/>
										<path class="st2" d="M63.1,3h7.9V0h-7.9V3z"/>
										<path class="st3" d="M49.5,4.6h13.8V3H49.5V4.6z"/>
										<path class="st2" d="M63.3,4.6h8.7V3h-8.7V4.6z"/>
										<path class="st4" d="M52.1,70.9h1.4V6.1h-1.4V70.9z"/>
										<path class="st4" d="M60.1,70.9h1.4V6.1h-1.4V70.9z"/>
										<path class="st4" d="M56.1,70.9h1.4V6.1h-1.4V70.9z"/>
										<path class="st6" d="M60.1,50.5h1.4V48h-1.4V50.5z"/>
										<path class="st6" d="M52.1,53.2h1.4v-2.6h-1.4V53.2z"/>
										<path class="st6" d="M60.1,29.2h1.4v-2.6h-1.4V29.2z"/>
										<path class="st6" d="M52.1,25.2h1.4v-2.6h-1.4V25.2z"/>
										<path class="st6" d="M56.1,53.1h1.4v-2.6h-1.4V53.1z"/>
										<path class="st3" d="M129.4,71.7h10.5V42.3h-10.5V71.7z"/>
										<path class="st4" d="M131.8,70.9h1.6V44.1h-1.6V70.9z"/>
										<path class="st4" d="M135.6,70.9h1.6V44.1h-1.6V70.9z"/>
										<path class="st2" d="M139.9,71.7h6.6V42.3h-6.6V71.7z"/>
										<path class="st3" d="M18.9,70.9h15.7V37.6H18.9V70.9z"/>
										<path class="st4" d="M20.5,70.9h1.8V39.2h-1.8V70.9z"/>
										<path class="st4" d="M25.6,70.9h1.8V39.2h-1.8V70.9z"/>
										<path class="st4" d="M30.7,70.9h1.8V39.2h-1.8V70.9z"/>
										<path class="st2" d="M34.6,70.9h10V37.6h-10V70.9z"/>
										<path class="st3" d="M38,70.9h8.6V51.8H38V70.9z"/>
										<path class="st3" d="M6.9,71.1h13.6V52.4H6.9V71.1z"/>
										<path class="st2" d="M20.5,71.1h8.6V52.4h-8.6V71.1z"/>
										<path class="st4" d="M6.9,68.7h13.6v-1.6H6.9V68.7z"/>
										<path class="st4" d="M6.9,64.8h13.6v-1.6H6.9V64.8z"/>
										<path class="st4" d="M6.9,61h13.6v-1.6H6.9V61z"/>
										<path class="st4" d="M6.9,57.1h13.6v-1.6H6.9V57.1z"/>
										<path class="st2" d="M118.1,70.9h14V51h-14V70.9z"/>
										<path class="st3" d="M102.4,70.9h15.7V51h-15.7V70.9z"/>
										<path class="st2" d="M119.3,53.2h15.6v-4h-15.6V53.2z"/>
										<path class="st2" d="M102.4,54.1h29.7v-1h-29.7V54.1z"/>
										<path class="st2" d="M102.4,65.3h29.7v-1h-29.7V65.3z"/>
										<path class="st3" d="M99.5,53.2h19.8v-4H99.5V53.2z"/>
										<path class="st2" d="M119.3,64.3h15.6v-6.7h-15.6V64.3z"/>
										<path class="st3" d="M99.5,64.3h19.8v-6.7H99.5V64.3z"/>
										<path class="st7" d="M0.9,71.1h152.3H0.9z"/>
										<g>
											<defs>
												<filter id="Adobe_OpacityMaskFilter" filterUnits="userSpaceOnUse" x="0" y="70.3" width="154" height="1.7">
													<feColorMatrix  type="matrix" values="1 0 0 0 0  0 1 0 0 0  0 0 1 0 0  0 0 0 1 0"/>
												</filter>
											</defs>
											<mask maskUnits="userSpaceOnUse" x="0" y="70.3" width="154" height="1.7" id="master_svg1_159_17775_1_">
												<path class="st8" d="M0,70.3h154V72H0V70.3z"/>
											</mask>
											<g class="st9">
												<path class="st10" d="M153.1,72H0.9C0.4,72,0,71.6,0,71.1s0.4-0.9,0.9-0.9h152.3c0.5,0,0.9,0.4,0.9,0.9
													S153.6,72,153.1,72z"/>
											</g>
										</g>
									</g>
								</g>
							</g>
						</g>
					</g>
				</g>
			</g>
		</g>
	</g>
</g>
</svg>
