<svg xmlns="http://www.w3.org/2000/svg" xmlns:xlink="http://www.w3.org/1999/xlink" fill="none" version="1.1" width="48" height="48" viewBox="0 0 48 48"><defs><mask id="master_svg0_245_2104"><rect x="0" y="0" width="48" height="48" rx="0" fill="#FFFFFF" fill-opacity="1"/></mask><mask id="master_svg1_245_2107"><rect x="0" y="0" width="48" height="48" rx="0" fill="#FFFFFF" fill-opacity="1"/></mask><mask id="master_svg2_245_2110"><rect x="0" y="0" width="48" height="48" rx="0" fill="#FFFFFF" fill-opacity="1"/></mask><mask id="master_svg3_245_2113"><rect x="0" y="0" width="48" height="48" rx="0" fill="#FFFFFF" fill-opacity="1"/></mask><mask id="master_svg4_245_2116"><rect x="0" y="0" width="48" height="48" rx="0" fill="#FFFFFF" fill-opacity="1"/></mask><mask id="master_svg5_245_2119"><rect x="0" y="0" width="48" height="48" rx="0" fill="#FFFFFF" fill-opacity="1"/></mask><mask id="master_svg6_245_2122"><rect x="0" y="0" width="48" height="48" rx="0" fill="#FFFFFF" fill-opacity="1"/></mask><mask id="master_svg7_245_2125"><rect x="0" y="0" width="48" height="48" rx="0" fill="#FFFFFF" fill-opacity="1"/></mask><mask id="master_svg8_245_2128"><rect x="0" y="0" width="48" height="48" rx="0" fill="#FFFFFF" fill-opacity="1"/></mask><mask id="master_svg9_245_2131"><rect x="0" y="0" width="48" height="48" rx="0" fill="#FFFFFF" fill-opacity="1"/></mask><mask id="master_svga_245_2134"><rect x="0" y="0" width="48" height="48" rx="0" fill="#FFFFFF" fill-opacity="1"/></mask><mask id="master_svgb_245_2137"><rect x="0" y="0" width="48" height="48" rx="0" fill="#FFFFFF" fill-opacity="1"/></mask><mask id="master_svgc_245_2140"><rect x="0" y="0" width="48" height="48" rx="0" fill="#FFFFFF" fill-opacity="1"/></mask><mask id="master_svgd_245_2143"><rect x="0" y="0" width="48" height="48" rx="0" fill="#FFFFFF" fill-opacity="1"/></mask><mask id="master_svge_245_2146"><rect x="0" y="0" width="48" height="48" rx="0" fill="#FFFFFF" fill-opacity="1"/></mask></defs><g mask="url(#master_svg0_245_2104)"><g><g mask="url(#master_svg1_245_2107)"><g><g mask="url(#master_svg2_245_2110)"><path d="M40,35L8,35C6.35,35,5,33.65,5,32L5,10C5,8.35,6.35,7,8,7L40,7C41.65,7,43,8.35,43,10L43,32C43,33.65,41.65,35,40,35ZM8,9C7.45,9,7,9.45,7,10L7,32C7,32.55,7.45,33,8,33L40,33C40.55,33,41,32.55,41,32L41,10C41,9.45,40.55,9,40,9L8,9Z" fill="#19191A" fill-opacity="1"/></g></g></g><g mask="url(#master_svg3_245_2113)"><g><g mask="url(#master_svg4_245_2116)"><path d="M42,40L6,40C5.45,40,5,39.55,5,39C5,38.450001,5.45,38,6,38L42,38C42.55,38,43,38.450001,43,39C43,39.55,42.55,40,42,40Z" fill="#19191A" fill-opacity="1"/></g></g></g><g mask="url(#master_svg5_245_2119)"><g><g mask="url(#master_svg6_245_2122)"><path d="M39,14L9,14C8.45,14,8,13.55,8,13C8,12.45,8.45,12,9,12L39,12C39.55,12,40,12.45,40,13C40,13.55,39.55,14,39,14Z" fill="#19191A" fill-opacity="1"/></g></g></g><g mask="url(#master_svg7_245_2125)"><g><g mask="url(#master_svg8_245_2128)"><path d="M12,29C11.45,29,11,28.55,11,28L11,24C11,23.450001,11.45,23,12,23C12.55,23,13,23.450001,13,24L13,28C13,28.55,12.55,29,12,29Z" fill="#19191A" fill-opacity="1"/></g></g></g><g mask="url(#master_svg9_245_2131)"><g><g mask="url(#master_svga_245_2134)"><path d="M20,29C19.45,29,19,28.55,19,28L19,22C19,21.45,19.45,21,20,21C20.55,21,21,21.45,21,22L21,28C21,28.55,20.55,29,20,29Z" fill="#19191A" fill-opacity="1"/></g></g></g><g mask="url(#master_svgb_245_2137)"><g><g mask="url(#master_svgc_245_2140)"><path d="M28,29C27.450001,29,27,28.55,27,28L27,19C27,18.45,27.450001,18,28,18C28.55,18,29,18.45,29,19L29,28C29,28.55,28.55,29,28,29Z" fill="#19191A" fill-opacity="1"/></g></g></g><g mask="url(#master_svgd_245_2143)"><g><g mask="url(#master_svge_245_2146)"><path d="M36,29C35.45,29,35,28.55,35,28L35,22C35,21.45,35.45,21,36,21C36.55,21,37,21.45,37,22L37,28C37,28.55,36.55,29,36,29Z" fill="#19191A" fill-opacity="1"/></g></g></g></g></g></svg>