<svg xmlns="http://www.w3.org/2000/svg" xmlns:xlink="http://www.w3.org/1999/xlink" fill="none" version="1.1" width="70" height="70" viewBox="0 0 48 48"><defs><mask id="master_svg0_245_1993"><rect x="0" y="0" width="48" height="48" rx="0" fill="#FFFFFF" fill-opacity="1"/></mask><mask id="master_svg1_245_1996"><rect x="0" y="0" width="48" height="48" rx="0" fill="#FFFFFF" fill-opacity="1"/></mask><mask id="master_svg2_245_1999"><rect x="0" y="0" width="48" height="48" rx="0" fill="#FFFFFF" fill-opacity="1"/></mask><mask id="master_svg3_245_2002"><rect x="0" y="0" width="48" height="48" rx="0" fill="#FFFFFF" fill-opacity="1"/></mask><mask id="master_svg4_245_2005"><rect x="0" y="0" width="48" height="48" rx="0" fill="#FFFFFF" fill-opacity="1"/></mask><mask id="master_svg5_245_2008"><rect x="0" y="0" width="48" height="48" rx="0" fill="#FFFFFF" fill-opacity="1"/></mask><mask id="master_svg6_245_2011"><rect x="0" y="0" width="48" height="48" rx="0" fill="#FFFFFF" fill-opacity="1"/></mask><mask id="master_svg7_245_2014"><rect x="0" y="0" width="48" height="48" rx="0" fill="#FFFFFF" fill-opacity="1"/></mask><mask id="master_svg8_245_2017"><rect x="0" y="0" width="48" height="48" rx="0" fill="#FFFFFF" fill-opacity="1"/></mask><mask id="master_svg9_245_2020"><rect x="0" y="0" width="48" height="48" rx="0" fill="#FFFFFF" fill-opacity="1"/></mask><mask id="master_svga_245_2023"><rect x="0" y="0" width="48" height="48" rx="0" fill="#FFFFFF" fill-opacity="1"/></mask><mask id="master_svgb_245_2026"><rect x="0" y="0" width="48" height="48" rx="0" fill="#FFFFFF" fill-opacity="1"/></mask><mask id="master_svgc_245_2029"><rect x="0" y="0" width="48" height="48" rx="0" fill="#FFFFFF" fill-opacity="1"/></mask><mask id="master_svgd_245_2032"><rect x="0" y="0" width="48" height="48" rx="0" fill="#FFFFFF" fill-opacity="1"/></mask><mask id="master_svge_245_2035"><rect x="0" y="0" width="48" height="48" rx="0" fill="#FFFFFF" fill-opacity="1"/></mask><mask id="master_svgf_245_2038"><rect x="0" y="0" width="48" height="48" rx="0" fill="#FFFFFF" fill-opacity="1"/></mask><mask id="master_svgg_245_2041"><rect x="0" y="0" width="48" height="48" rx="0" fill="#FFFFFF" fill-opacity="1"/></mask></defs><g mask="url(#master_svg0_245_1993)"><g><g mask="url(#master_svg1_245_1996)"><g><g mask="url(#master_svg2_245_1999)"><path d="M31.34999969482422,14.40999984741211C31.34999969482422,14.95999984741211,30.90999969482422,15.40999984741211,30.34999969482422,15.40999984741211L19.75999969482422,15.40999984741211C19.32999869482422,15.40999984741211,18.94999869482422,15.12999984741211,18.81999969482422,14.73999984741211L18.81999969482422,14.07999984741211C18.949999694824218,13.689999847412109,19.32999969482422,13.40999984741211,19.75999969482422,13.40999984741211L30.34999969482422,13.40999984741211C30.90999969482422,13.40999984741211,31.34999969482422,13.859999847412109,31.34999969482422,14.40999984741211Z" fill="#19191A" fill-opacity="1"/></g></g></g><g mask="url(#master_svg3_245_2002)"><g><g mask="url(#master_svg4_245_2005)"><path d="M29.179999618530275,34.19999877929688L29.179999618530275,34.85999877929687C29.049999618530272,35.249998779296874,28.669999618530273,35.529998779296875,28.239999618530273,35.529998779296875L17.649999618530273,35.529998779296875C17.089999618530275,35.529998779296875,16.649999618530273,35.07999877929687,16.649999618530273,34.529998779296875C16.649999618530273,33.979999779296875,17.089999618530275,33.529998779296875,17.649999618530273,33.529998779296875L28.239999618530273,33.529998779296875C28.669999618530273,33.529998779296875,29.049999618530272,33.80999777929687,29.179999618530275,34.19999877929688Z" fill="#19191A" fill-opacity="1"/></g></g></g><g mask="url(#master_svg5_245_2008)"><g><g mask="url(#master_svg6_245_2011)"><path d="M34.59000038146973,9.180000305175781C32.040000381469724,9.180000305175781,29.920000381469727,11.000000305175782,29.450000381469728,13.410000305175782C29.380001081469725,13.730000305175782,29.350000381469727,14.070000305175782,29.350000381469727,14.410000305175782C29.350000381469727,14.750000305175782,29.380001081469725,15.090000305175781,29.450000381469728,15.410000305175782C29.920000381469727,17.83000030517578,32.040000381469724,19.65000030517578,34.59000038146973,19.65000030517578C37.470000381469724,19.65000030517578,39.820000381469725,17.30000030517578,39.820000381469725,14.410000305175782C39.820000381469725,11.530000305175781,37.470000381469724,9.180000305175781,34.59000038146973,9.180000305175781ZM34.59000038146973,17.65000030517578C32.80000038146973,17.65000030517578,31.350000381469727,16.20000030517578,31.350000381469727,14.410000305175782C31.350000381469727,12.63000030517578,32.80000038146973,11.180000305175781,34.59000038146973,11.180000305175781C36.37000038146972,11.180000305175781,37.820000381469725,12.63000030517578,37.820000381469725,14.410000305175782C37.820000381469725,16.20000030517578,36.37000038146972,17.65000030517578,34.59000038146973,17.65000030517578Z" fill="#19191A" fill-opacity="1"/></g></g></g><g mask="url(#master_svg7_245_2014)"><g><g mask="url(#master_svg8_245_2017)"><path d="M18.55000030517578,33.530000915527346C18.08000030517578,31.110000915527344,15.960000305175782,29.290000915527344,13.410000305175782,29.290000915527344C10.520000305175781,29.290000915527344,8.180000305175781,31.640000915527345,8.180000305175781,34.530000915527346C8.180000305175781,37.420000915527346,10.520000305175781,39.77000091552735,13.410000305175782,39.77000091552735C15.960000305175782,39.77000091552735,18.08000030517578,37.95000091552734,18.55000030517578,35.530000915527346C18.62000030517578,35.210000915527345,18.65000030517578,34.87000091552734,18.65000030517578,34.530000915527346C18.65000030517578,34.19000091552734,18.62000030517578,33.850000915527346,18.55000030517578,33.530000915527346ZM13.410000305175782,37.77000091552735C11.63000030517578,37.77000091552735,10.180000305175781,36.31000091552734,10.180000305175781,34.530000915527346C10.180000305175781,32.750000915527345,11.63000030517578,31.290000915527344,13.410000305175782,31.290000915527344C15.20000030517578,31.290000915527344,16.65000030517578,32.750000915527345,16.65000030517578,34.530000915527346C16.65000030517578,36.31000091552734,15.20000030517578,37.77000091552735,13.410000305175782,37.77000091552735Z" fill="#19191A" fill-opacity="1"/></g></g></g><g mask="url(#master_svg9_245_2020)"><g><g mask="url(#master_svga_245_2023)"><path d="M18.82,7L8,7C6.9,7,6,7.9,6,9L6,19.82C6,20.93,6.9,21.82,8,21.82L18.82,21.82C19.93,21.82,20.82,20.93,20.82,19.82L20.82,9C20.82,7.9,19.93,7,18.82,7ZM18.82,19.82L8,19.82L8,9L18.82,9L18.82,19.82Z" fill="#19191A" fill-opacity="1"/></g></g></g><g mask="url(#master_svgb_245_2026)"><g><g mask="url(#master_svgc_245_2029)"><path d="M13.70999984741211,19.82000064849822C14.11999984741211,19.940000694824217,14.40999984741211,20.32000069482422,14.40999984741211,20.77000069482422L14.40999984741211,21.81999969482422L14.40999984741211,27.11999969482422C14.40999984741211,27.66999969482422,13.95999984741211,28.11999969482422,13.40999984741211,28.11999969482422C12.859999847412109,28.11999969482422,12.40999984741211,27.66999969482422,12.40999984741211,27.11999969482422L12.40999984741211,21.81999969482422L12.40999984741211,20.769999694824218C12.40999984741211,20.309999694824217,12.70999984741211,19.93999969482422,13.11999984741211,19.81999969482422L13.70999984741211,19.82000064849822Z" fill="#19191A" fill-opacity="1"/></g></g></g><g mask="url(#master_svgd_245_2032)"><g><g mask="url(#master_svge_245_2035)"><path d="M35.59000015258789,21.81999969482422L35.59000015258789,28.179999694824218C35.59000015258789,28.609999694824218,35.31000015258789,28.98999969482422,34.92000015258789,29.11999969482422L34.26000015258789,29.11999969482422C33.87000115258789,28.98999969482422,33.59000015258789,28.609999694824218,33.59000015258789,28.179999694824218L33.59000015258789,21.81999969482422C33.59000015258789,21.269999694824218,34.04000115258789,20.81999969482422,34.59000015258789,20.81999969482422C35.14000015258789,20.81999969482422,35.59000015258789,21.27000069482422,35.59000015258789,21.81999969482422Z" fill="#19191A" fill-opacity="1"/></g></g></g><g mask="url(#master_svgf_245_2038)"><g><g mask="url(#master_svgg_245_2041)"><path d="M40.00000030517578,27.1200008392334L29.18000030517578,27.1200008392334C28.06999930517578,27.1200008392334,27.18000030517578,28.009999839233398,27.18000030517578,29.1200008392334L27.18000030517578,39.9400008392334C27.18000030517578,41.0400008392334,28.06999930517578,41.9400008392334,29.18000030517578,41.9400008392334L40.00000030517578,41.9400008392334C41.10000030517578,41.9400008392334,42.00000030517578,41.0400008392334,42.00000030517578,39.9400008392334L42.00000030517578,29.1200008392334C42.00000030517578,28.009999839233398,41.10000030517578,27.1200008392334,40.00000030517578,27.1200008392334ZM40.00000030517578,39.9400008392334L29.18000030517578,39.9400008392334L29.18000030517578,29.1200008392334L40.00000030517578,29.1200008392334L40.00000030517578,39.9400008392334Z" fill="#19191A" fill-opacity="1"/></g></g></g></g></g></svg>