<svg xmlns="http://www.w3.org/2000/svg" xmlns:xlink="http://www.w3.org/1999/xlink" fill="none" version="1.1" width="48" height="48" viewBox="0 0 48 48"><defs><mask id="master_svg0_245_2071"><rect x="0" y="0" width="48" height="48" rx="0" fill="#FFFFFF" fill-opacity="1"/></mask><mask id="master_svg1_245_2074"><rect x="0" y="0" width="48" height="48" rx="0" fill="#FFFFFF" fill-opacity="1"/></mask><mask id="master_svg2_245_2077"><rect x="0" y="0" width="48" height="48" rx="0" fill="#FFFFFF" fill-opacity="1"/></mask><mask id="master_svg3_245_2080"><rect x="0" y="0" width="48" height="48" rx="0" fill="#FFFFFF" fill-opacity="1"/></mask><mask id="master_svg4_245_2083"><rect x="0" y="0" width="48" height="48" rx="0" fill="#FFFFFF" fill-opacity="1"/></mask><mask id="master_svg5_245_2086"><rect x="0" y="0" width="48" height="48" rx="0" fill="#FFFFFF" fill-opacity="1"/></mask><mask id="master_svg6_245_2089"><rect x="0" y="0" width="48" height="48" rx="0" fill="#FFFFFF" fill-opacity="1"/></mask><mask id="master_svg7_245_2092"><rect x="0" y="0" width="48" height="48" rx="0" fill="#FFFFFF" fill-opacity="1"/></mask><mask id="master_svg8_245_2095"><rect x="0" y="0" width="48" height="48" rx="0" fill="#FFFFFF" fill-opacity="1"/></mask><mask id="master_svg9_245_2098"><rect x="0" y="0" width="48" height="48" rx="0" fill="#FFFFFF" fill-opacity="1"/></mask><mask id="master_svga_245_2101"><rect x="0" y="0" width="48" height="48" rx="0" fill="#FFFFFF" fill-opacity="1"/></mask></defs><g mask="url(#master_svg0_245_2071)"><g><g mask="url(#master_svg1_245_2074)"><g><g mask="url(#master_svg2_245_2077)"><path d="M21.360000076293943,30.68002287597656C21.340000076293947,30.68002287597656,21.330000076293945,30.68002287597656,21.310000076293946,30.68002287597656C20.860000076293943,30.660022875976562,20.460000076293944,30.40002287597656,20.270000076293947,29.980022875976562L18.000000076293944,25.050002875976563L11.420000076293945,25.050002875976563C10.870000076293945,25.050002875976563,10.420000076293945,24.59999287597656,10.420000076293945,24.050002875976563C10.420000076293945,23.500002875976563,10.870000076293945,23.050002875976563,11.420000076293945,23.050002875976563L18.510000076293945,23.050002875976563C18.980000076293948,23.050002875976563,19.400000076293946,23.320002875976563,19.600000076293945,23.750002875976563L21.430000076293943,27.72000287597656L26.630000076293946,18.429998875976562C26.840000076293947,18.05999887597656,27.210000076293944,17.829997975976564,27.630000076293946,17.819998745976562C28.040000076293946,17.779998775976562,28.440000076293945,17.999998875976562,28.670000076293945,18.349998875976564L31.800000076293944,23.050002875976563L37.130000076293946,23.050002875976563C37.68000007629395,23.050002875976563,38.130000076293946,23.500002875976563,38.130000076293946,24.050002875976563C38.130000076293946,24.59999287597656,37.68000007629395,25.050002875976563,37.130000076293946,25.050002875976563L31.370000076293945,25.050002875976563C30.970000076293946,25.050002875976563,30.600000076293945,24.84999287597656,30.370000076293945,24.519992875976563L27.720000076293946,20.549992875976564L22.390000076293944,30.070022875976562C22.190000076293945,30.450022875976565,21.800000076293948,30.68002287597656,21.360000076293943,30.68002287597656Z" fill="#19191A" fill-opacity="1"/></g></g></g><g mask="url(#master_svg3_245_2080)"><g><g mask="url(#master_svg4_245_2083)"><path d="M7,24.05C7,14.63,14.63,7,24.05,7C33.47,7,41.1,14.63,41.1,24.05C41.1,25.77,40.84,27.44,40.37,29.01C40.17,29.67,40.64,30.37,41.34,30.37C41.76,30.37,42.13,30.11,42.25,29.71C42.81,27.92,43.1,26.02,43.1,24.05C43.1,13.53,34.57,5,24.05,5C13.53,5,5,13.53,5,24.05C5,34.57,13.53,43.1,24.05,43.1C24.56,43.1,24.95,42.68,24.95,42.18L24.95,41.98C24.95,41.49,24.54,41.1,24.05,41.1C14.63,41.1,7,33.47,7,24.05Z" fill-rule="evenodd" fill="#19191A" fill-opacity="1"/></g></g></g><g mask="url(#master_svg5_245_2086)"><g><g mask="url(#master_svg6_245_2089)"><path d="M39.400001525878906,43.10000030517578C38.85000252587891,43.10000030517578,38.400001525878906,42.65000030517578,38.400001525878906,42.10000030517578L38.400001525878906,36.68000030517578C38.400001525878906,36.13000130517578,38.85000252587891,35.68000030517578,39.400001525878906,35.68000030517578C39.9500015258789,35.68000030517578,40.400001525878906,36.13000130517578,40.400001525878906,36.68000030517578L40.400001525878906,42.10000030517578C40.400001525878906,42.660000305175785,39.9500015258789,43.10000030517578,39.400001525878906,43.10000030517578Z" fill="#19191A" fill-opacity="1"/></g></g></g><g mask="url(#master_svg7_245_2092)"><g><g mask="url(#master_svg8_245_2095)"><path d="M34.87999725341797,43.099999542236326C34.32999825341797,43.099999542236326,33.87999725341797,42.64999954223633,33.87999725341797,42.099999542236326L33.87999725341797,33.97999954223633C33.87999725341797,33.43000054223633,34.32999825341797,32.97999954223633,34.87999725341797,32.97999954223633C35.429997253417966,32.97999954223633,35.87999725341797,33.43000054223633,35.87999725341797,33.97999954223633L35.87999725341797,42.099999542236326C35.87999725341797,42.65999954223633,35.43999725341797,43.099999542236326,34.87999725341797,43.099999542236326Z" fill="#19191A" fill-opacity="1"/></g></g></g><g mask="url(#master_svg9_245_2098)"><g><g mask="url(#master_svga_245_2101)"><path d="M30.3700008392334,43.09999786376953C29.8200018392334,43.09999786376953,29.3700008392334,42.64999786376953,29.3700008392334,42.09999786376953L29.3700008392334,38.48999786376953C29.3700008392334,37.93999886376953,29.8200018392334,37.48999786376953,30.3700008392334,37.48999786376953C30.9200008392334,37.48999786376953,31.3700008392334,37.93999886376953,31.3700008392334,38.48999786376953L31.3700008392334,42.09999786376953C31.3700008392334,42.65999786376953,30.9200008392334,43.09999786376953,30.3700008392334,43.09999786376953Z" fill="#19191A" fill-opacity="1"/></g></g></g></g></g></svg>