<svg xmlns="http://www.w3.org/2000/svg" xmlns:xlink="http://www.w3.org/1999/xlink" fill="none" version="1.1" width="48" height="48" viewBox="0 0 48 48"><defs><mask id="master_svg0_245_2044"><rect x="0" y="0" width="48" height="48" rx="0" fill="#FFFFFF" fill-opacity="1"/></mask><mask id="master_svg1_245_2047"><rect x="0" y="0" width="48" height="48" rx="0" fill="#FFFFFF" fill-opacity="1"/></mask><mask id="master_svg2_245_2050"><rect x="0" y="0" width="48" height="48" rx="0" fill="#FFFFFF" fill-opacity="1"/></mask><mask id="master_svg3_245_2053"><rect x="0" y="0" width="48" height="48" rx="0" fill="#FFFFFF" fill-opacity="1"/></mask><mask id="master_svg4_245_2056"><rect x="0" y="0" width="48" height="48" rx="0" fill="#FFFFFF" fill-opacity="1"/></mask><mask id="master_svg5_245_2059"><rect x="0" y="0" width="48" height="48" rx="0" fill="#FFFFFF" fill-opacity="1"/></mask><mask id="master_svg6_245_2062"><rect x="0" y="0" width="48" height="48" rx="0" fill="#FFFFFF" fill-opacity="1"/></mask><mask id="master_svg7_245_2065"><rect x="0" y="0" width="48" height="48" rx="0" fill="#FFFFFF" fill-opacity="1"/></mask><mask id="master_svg8_245_2068"><rect x="0" y="0" width="48" height="48" rx="0" fill="#FFFFFF" fill-opacity="1"/></mask></defs><g mask="url(#master_svg0_245_2044)"><g><g mask="url(#master_svg1_245_2047)"><g><g mask="url(#master_svg2_245_2050)"><path d="M24,44C12.97,44,4,35.03,4,24C4,12.97,12.97,4,24,4C35.03,4,44,12.97,44,24C44,35.03,35.03,44,24,44ZM24,6C14.07,6,6,14.07,6,24C6,33.92,14.07,42,24,42C33.92,42,42,33.92,42,24C42,14.07,33.92,6,24,6Z" fill="#19191A" fill-opacity="1"/></g></g></g><g mask="url(#master_svg3_245_2053)"><g><g mask="url(#master_svg4_245_2056)"><path d="M33.97,31.650000381469727L19.25,31.650000381469727C16.87,31.650000381469727,14.92,29.710000381469726,14.92,27.330000381469727C14.92,24.950000381469728,16.87,23.000000381469725,19.25,23.000000381469725L27.8,23.000000381469725C29.08,23.000000381469725,30.13,21.960000381469726,30.13,20.670000381469727C30.13,19.390000381469726,29.09,18.350000381469727,27.8,18.350000381469727L14.5,18.350000381469727C13.95,18.350000381469727,13.5,17.900000381469727,13.5,17.350000381469727C13.5,16.800000381469726,13.95,16.350000381469727,14.5,16.350000381469727L27.8,16.350000381469727C30.18,16.350000381469727,32.129999999999995,18.290000381469728,32.129999999999995,20.670000381469727C32.129999999999995,23.050000381469726,30.18,25.000000381469725,27.8,25.000000381469725L19.25,25.000000381469725C17.97,25.000000381469725,16.92,26.040000381469724,16.92,27.330000381469727C16.92,28.610000381469725,17.96,29.650000381469727,19.25,29.650000381469727L33.97,29.650000381469727C34.519999999999996,29.650000381469727,34.97,30.100000381469727,34.97,30.650000381469727C34.97,31.200000381469728,34.53,31.650000381469727,33.97,31.650000381469727Z" fill="#000000" fill-opacity="1"/></g></g></g><g mask="url(#master_svg5_245_2059)"><g><g mask="url(#master_svg6_245_2062)"><path d="M18.399995924072265,19.43999980926514C19.499995924072266,19.43999980926514,20.399995924072265,18.549999809265138,20.399995924072265,17.439999809265135C20.399995924072265,16.339998809265136,19.509995924072264,15.449999809265137,18.399995924072265,15.449999809265137C17.299998924072266,15.449999809265137,16.409999847372266,16.339999809265137,16.409999847372266,17.439999809265135C16.399999614072264,18.549999809265138,17.289999924072266,19.43999980926514,18.399995924072265,19.43999980926514Z" fill="#19191A" fill-opacity="1"/></g></g></g><g mask="url(#master_svg7_245_2065)"><g><g mask="url(#master_svg8_245_2068)"><path d="M30.75,32.739999771118164C31.85,32.739999771118164,32.75,31.849999771118163,32.75,30.739999771118164C32.75,29.639999771118163,31.86,28.739999771118164,30.75,28.739999771118164C29.65,28.739999771118164,28.75,29.629998771118164,28.75,30.739999771118164C28.75,31.849999771118163,29.639999,32.739999771118164,30.75,32.739999771118164Z" fill="#19191A" fill-opacity="1"/></g></g></g></g></g></svg>